<svg width="32" height="33" viewBox="0 0 32 33" fill="none" xmlns="http://www.w3.org/2000/svg">
<path d="M21.8206 9.40234C19.3006 9.40234 18.2356 10.6048 16.4806 10.6048C14.6812 10.6048 13.3087 9.41109 11.125 9.41109C8.98749 9.41109 6.70812 10.7161 5.26062 12.9392C3.22812 16.0742 3.57312 21.9786 6.86499 27.0086C8.04249 28.8092 9.61499 30.8286 11.6775 30.8505H11.715C13.5075 30.8505 14.04 29.6767 16.5069 29.663H16.5444C18.9744 29.663 19.4619 30.8436 21.2469 30.8436H21.2844C23.3469 30.8217 25.0037 28.5842 26.1812 26.7905C27.0287 25.5005 27.3437 24.853 27.9937 23.3936C23.2319 21.5861 22.4669 14.8355 27.1762 12.2473C25.7387 10.4473 23.7187 9.40484 21.8144 9.40484L21.8206 9.40234Z" fill="black"/>
<path d="M21.2656 2.84863C19.7656 2.95051 18.0156 3.90551 16.9906 5.15238C16.0606 6.28238 15.2956 7.95863 15.5956 9.58426H15.7156C17.3131 9.58426 18.9481 8.62238 19.9031 7.38988C20.8231 6.21676 21.5206 4.55426 21.2656 2.84863Z" fill="black"/>
</svg>
