<svg width="24" height="25" viewBox="0 0 24 25" fill="none" xmlns="http://www.w3.org/2000/svg">
<path d="M6.2968 16.6589C5.90628 17.0494 5.90628 17.6825 6.2968 18.0731C6.68732 18.4636 7.32049 18.4636 7.71101 18.0731L6.2968 16.6589ZM17.0039 7.36597H18.0039C18.0039 6.81368 17.5562 6.36597 17.0039 6.36597V7.36597ZM7.00391 6.36597C6.45162 6.36597 6.00391 6.81368 6.00391 7.36597C6.00391 7.91825 6.45162 8.36597 7.00391 8.36597V6.36597ZM16.0039 17.366C16.0039 17.9183 16.4516 18.366 17.0039 18.366C17.5562 18.366 18.0039 17.9183 18.0039 17.366H16.0039ZM7.71101 18.0731L17.711 8.07307L16.2968 6.65886L6.2968 16.6589L7.71101 18.0731ZM7.00391 8.36597H17.0039V6.36597H7.00391V8.36597ZM16.0039 7.36597V17.366H18.0039V7.36597H16.0039Z" fill="white"/>
</svg>
