<svg width="25" height="29" viewBox="0 0 25 29" fill="none" xmlns="http://www.w3.org/2000/svg">
<path d="M6.79289 21.0247C6.40237 21.4152 6.40237 22.0484 6.79289 22.4389C7.18342 22.8294 7.81658 22.8294 8.20711 22.4389L6.79289 21.0247ZM17.5 11.7318H18.5C18.5 11.1795 18.0523 10.7318 17.5 10.7318V11.7318ZM7.5 10.7318C6.94772 10.7318 6.5 11.1795 6.5 11.7318C6.5 12.2841 6.94772 12.7318 7.5 12.7318V10.7318ZM16.5 21.7318C16.5 22.2841 16.9477 22.7318 17.5 22.7318C18.0523 22.7318 18.5 22.2841 18.5 21.7318H16.5ZM8.20711 22.4389L18.2071 12.4389L16.7929 11.0247L6.79289 21.0247L8.20711 22.4389ZM7.5 12.7318H17.5V10.7318H7.5V12.7318ZM16.5 11.7318V21.7318H18.5V11.7318H16.5Z" fill="#333333"/>
</svg>
