<svg width="24" height="25" viewBox="0 0 24 25" fill="none" xmlns="http://www.w3.org/2000/svg">
<path d="M6.29289 16.3998C5.90237 16.7904 5.90237 17.4235 6.29289 17.814C6.68342 18.2046 7.31658 18.2046 7.70711 17.814L6.29289 16.3998ZM17 7.10693H18C18 6.55465 17.5523 6.10693 17 6.10693V7.10693ZM7 6.10693C6.44772 6.10693 6 6.55465 6 7.10693C6 7.65922 6.44772 8.10693 7 8.10693V6.10693ZM16 17.1069C16 17.6592 16.4477 18.1069 17 18.1069C17.5523 18.1069 18 17.6592 18 17.1069H16ZM7.70711 17.814L17.7071 7.81404L16.2929 6.39983L6.29289 16.3998L7.70711 17.814ZM7 8.10693H17V6.10693H7V8.10693ZM16 7.10693V17.1069H18V7.10693H16Z" fill="#555EC6"/>
</svg>
