<svg width="30" height="31" viewBox="0 0 30 31" fill="none" xmlns="http://www.w3.org/2000/svg">
<g clip-path="url(#clip0_239_576)">
<path fill-rule="evenodd" clip-rule="evenodd" d="M8.25 23.7983V8.61084C8.25 8.0141 8.48705 7.44181 8.90901 7.01985C9.33097 6.59789 9.90326 6.36084 10.5 6.36084H19.5C20.0967 6.36084 20.669 6.59789 21.091 7.01985C21.5129 7.44181 21.75 8.0141 21.75 8.61084V23.7983C21.7501 23.896 21.7247 23.992 21.6764 24.0769C21.6281 24.1618 21.5585 24.2327 21.4745 24.2825C21.3905 24.3324 21.2949 24.3595 21.1973 24.3612C21.0996 24.3629 21.0032 24.3391 20.9175 24.2922L15 21.0635L9.0825 24.2922C8.99681 24.3391 8.90038 24.3629 8.80272 24.3612C8.70505 24.3595 8.60951 24.3324 8.5255 24.2825C8.44149 24.2327 8.37191 24.1618 8.3236 24.0769C8.2753 23.992 8.24993 23.896 8.25 23.7983ZM15.5625 11.4233C15.5625 11.2742 15.5032 11.1311 15.3977 11.0256C15.2923 10.9201 15.1492 10.8608 15 10.8608C14.8508 10.8608 14.7077 10.9201 14.6023 11.0256C14.4968 11.1311 14.4375 11.2742 14.4375 11.4233V13.1108H12.75C12.6008 13.1108 12.4577 13.1701 12.3523 13.2756C12.2468 13.3811 12.1875 13.5242 12.1875 13.6733C12.1875 13.8225 12.2468 13.9656 12.3523 14.0711C12.4577 14.1766 12.6008 14.2358 12.75 14.2358H14.4375V15.9233C14.4375 16.0725 14.4968 16.2156 14.6023 16.3211C14.7077 16.4266 14.8508 16.4858 15 16.4858C15.1492 16.4858 15.2923 16.4266 15.3977 16.3211C15.5032 16.2156 15.5625 16.0725 15.5625 15.9233V14.2358H17.25C17.3992 14.2358 17.5423 14.1766 17.6477 14.0711C17.7532 13.9656 17.8125 13.8225 17.8125 13.6733C17.8125 13.5242 17.7532 13.3811 17.6477 13.2756C17.5423 13.1701 17.3992 13.1108 17.25 13.1108H15.5625V11.4233Z" fill="#4657A1"/>
</g>
<circle cx="15" cy="15.3608" r="14.5" stroke="#4657A1"/>
<defs>
<clipPath id="clip0_239_576">
<rect width="18" height="18" fill="white" transform="translate(6 6.36084)"/>
</clipPath>
</defs>
</svg>
