<svg width="30" height="31" viewBox="0 0 30 31" fill="none" xmlns="http://www.w3.org/2000/svg">
<g clip-path="url(#clip0_239_492)">
<path d="M22 6.36084C22.5304 6.36084 23.0391 6.57155 23.4142 6.94663C23.7893 7.3217 24 7.83041 24 8.36084V22.3608C24 22.8913 23.7893 23.4 23.4142 23.7751C23.0391 24.1501 22.5304 24.3608 22 24.3608H8C7.46957 24.3608 6.96086 24.1501 6.58579 23.7751C6.21071 23.4 6 22.8913 6 22.3608V8.36084C6 7.83041 6.21071 7.3217 6.58579 6.94663C6.96086 6.57155 7.46957 6.36084 8 6.36084H22ZM21.5 21.8608V16.5608C21.5 15.6962 21.1565 14.867 20.5452 14.2557C19.9338 13.6443 19.1046 13.3008 18.24 13.3008C17.39 13.3008 16.4 13.8208 15.92 14.6008V13.4908H13.13V21.8608H15.92V16.9308C15.92 16.1608 16.54 15.5308 17.31 15.5308C17.6813 15.5308 18.0374 15.6783 18.2999 15.9409C18.5625 16.2034 18.71 16.5595 18.71 16.9308V21.8608H21.5ZM9.88 11.9208C10.3256 11.9208 10.7529 11.7438 11.0679 11.4288C11.383 11.1137 11.56 10.6864 11.56 10.2408C11.56 9.31084 10.81 8.55084 9.88 8.55084C9.43178 8.55084 9.00193 8.72889 8.68499 9.04583C8.36805 9.36277 8.19 9.79262 8.19 10.2408C8.19 11.1708 8.95 11.9208 9.88 11.9208ZM11.27 21.8608V13.4908H8.5V21.8608H11.27Z" fill="#4657A1"/>
</g>
<circle cx="15" cy="15.3608" r="14.5" stroke="#4657A1"/>
<defs>
<clipPath id="clip0_239_492">
<rect width="18" height="18" fill="white" transform="translate(6 6.36084)"/>
</clipPath>
</defs>
</svg>
