<svg width="36" height="37" viewBox="0 0 36 37" fill="none" xmlns="http://www.w3.org/2000/svg">
<g clip-path="url(#clip0_243_781)">
<path fill-rule="evenodd" clip-rule="evenodd" d="M11.25 26.9592V11.7717C11.25 11.175 11.4871 10.6027 11.909 10.1807C12.331 9.75878 12.9033 9.52173 13.5 9.52173H22.5C23.0967 9.52173 23.669 9.75878 24.091 10.1807C24.5129 10.6027 24.75 11.175 24.75 11.7717V26.9592C24.7501 27.0569 24.7247 27.1529 24.6764 27.2378C24.6281 27.3227 24.5585 27.3936 24.4745 27.4434C24.3905 27.4933 24.2949 27.5204 24.1973 27.5221C24.0996 27.5238 24.0032 27.5 23.9175 27.4531L18 24.2244L12.0825 27.4531C11.9968 27.5 11.9004 27.5238 11.8027 27.5221C11.7051 27.5204 11.6095 27.4933 11.5255 27.4434C11.4415 27.3936 11.3719 27.3227 11.3236 27.2378C11.2753 27.1529 11.2499 27.0569 11.25 26.9592ZM18.5625 14.5842C18.5625 14.435 18.5032 14.292 18.3977 14.1865C18.2923 14.081 18.1492 14.0217 18 14.0217C17.8508 14.0217 17.7077 14.081 17.6023 14.1865C17.4968 14.292 17.4375 14.435 17.4375 14.5842V16.2717H15.75C15.6008 16.2717 15.4577 16.331 15.3523 16.4365C15.2468 16.542 15.1875 16.685 15.1875 16.8342C15.1875 16.9834 15.2468 17.1265 15.3523 17.232C15.4577 17.3375 15.6008 17.3967 15.75 17.3967H17.4375V19.0842C17.4375 19.2334 17.4968 19.3765 17.6023 19.482C17.7077 19.5875 17.8508 19.6467 18 19.6467C18.1492 19.6467 18.2923 19.5875 18.3977 19.482C18.5032 19.3765 18.5625 19.2334 18.5625 19.0842V17.3967H20.25C20.3992 17.3967 20.5423 17.3375 20.6477 17.232C20.7532 17.1265 20.8125 16.9834 20.8125 16.8342C20.8125 16.685 20.7532 16.542 20.6477 16.4365C20.5423 16.331 20.3992 16.2717 20.25 16.2717H18.5625V14.5842Z" fill="#FF6227"/>
</g>
<circle cx="18" cy="18.5217" r="17.5" stroke="#FF6227"/>
<defs>
<clipPath id="clip0_243_781">
<rect width="18" height="18" fill="white" transform="translate(9 9.52173)"/>
</clipPath>
</defs>
</svg>
