<svg width="36" height="37" viewBox="0 0 36 37" fill="none" xmlns="http://www.w3.org/2000/svg">
<g clip-path="url(#clip0_243_808)">
<path fill-rule="evenodd" clip-rule="evenodd" d="M11.25 26.8816V11.6941C11.25 11.0974 11.4871 10.5251 11.909 10.1031C12.331 9.68114 12.9033 9.44409 13.5 9.44409H22.5C23.0967 9.44409 23.669 9.68114 24.091 10.1031C24.5129 10.5251 24.75 11.0974 24.75 11.6941V26.8816C24.7501 26.9793 24.7247 27.0753 24.6764 27.1602C24.6281 27.2451 24.5585 27.3159 24.4745 27.3658C24.3905 27.4156 24.2949 27.4427 24.1973 27.4444C24.0996 27.4461 24.0032 27.4224 23.9175 27.3755L18 24.1467L12.0825 27.3755C11.9968 27.4224 11.9004 27.4461 11.8027 27.4444C11.7051 27.4427 11.6095 27.4156 11.5255 27.3658C11.4415 27.3159 11.3719 27.2451 11.3236 27.1602C11.2753 27.0753 11.2499 26.9793 11.25 26.8816ZM18.5625 14.5066C18.5625 14.3574 18.5032 14.2143 18.3977 14.1088C18.2923 14.0034 18.1492 13.9441 18 13.9441C17.8508 13.9441 17.7077 14.0034 17.6023 14.1088C17.4968 14.2143 17.4375 14.3574 17.4375 14.5066V16.1941H15.75C15.6008 16.1941 15.4577 16.2534 15.3523 16.3588C15.2468 16.4643 15.1875 16.6074 15.1875 16.7566C15.1875 16.9058 15.2468 17.0489 15.3523 17.1543C15.4577 17.2598 15.6008 17.3191 15.75 17.3191H17.4375V19.0066C17.4375 19.1558 17.4968 19.2989 17.6023 19.4043C17.7077 19.5098 17.8508 19.5691 18 19.5691C18.1492 19.5691 18.2923 19.5098 18.3977 19.4043C18.5032 19.2989 18.5625 19.1558 18.5625 19.0066V17.3191H20.25C20.3992 17.3191 20.5423 17.2598 20.6477 17.1543C20.7532 17.0489 20.8125 16.9058 20.8125 16.7566C20.8125 16.6074 20.7532 16.4643 20.6477 16.3588C20.5423 16.2534 20.3992 16.1941 20.25 16.1941H18.5625V14.5066Z" fill="#777777"/>
</g>
<circle cx="18" cy="18.4441" r="17.5" stroke="#999999"/>
<defs>
<clipPath id="clip0_243_808">
<rect width="18" height="18" fill="white" transform="translate(9 9.44409)"/>
</clipPath>
</defs>
</svg>
