<svg width="22" height="23" viewBox="0 0 22 23" fill="none" xmlns="http://www.w3.org/2000/svg">
<g clip-path="url(#clip0_184_901)">
<path fill-rule="evenodd" clip-rule="evenodd" d="M2.75 21.7566V3.19409C2.75 2.46475 3.03973 1.76527 3.55546 1.24955C4.07118 0.733823 4.77065 0.444092 5.5 0.444092L16.5 0.444092C17.2293 0.444092 17.9288 0.733823 18.4445 1.24955C18.9603 1.76527 19.25 2.46475 19.25 3.19409V21.7566C19.2501 21.876 19.2191 21.9933 19.16 22.0971C19.101 22.2009 19.016 22.2875 18.9133 22.3484C18.8106 22.4093 18.6938 22.4424 18.5745 22.4445C18.4551 22.4466 18.3372 22.4175 18.2325 22.3602L11 18.414L3.7675 22.3602C3.66277 22.4175 3.54491 22.4466 3.42554 22.4445C3.30618 22.4424 3.1894 22.4093 3.08673 22.3484C2.98405 22.2875 2.899 22.2009 2.83996 22.0971C2.78092 21.9933 2.74991 21.876 2.75 21.7566ZM11.6875 6.63159C11.6875 6.44926 11.6151 6.27439 11.4861 6.14546C11.3572 6.01652 11.1823 5.94409 11 5.94409C10.8177 5.94409 10.6428 6.01652 10.5139 6.14546C10.3849 6.27439 10.3125 6.44926 10.3125 6.63159V8.69409H8.25C8.06766 8.69409 7.8928 8.76652 7.76386 8.89546C7.63493 9.02439 7.5625 9.19925 7.5625 9.38159C7.5625 9.56393 7.63493 9.7388 7.76386 9.86773C7.8928 9.99666 8.06766 10.0691 8.25 10.0691H10.3125V12.1316C10.3125 12.3139 10.3849 12.4888 10.5139 12.6177C10.6428 12.7467 10.8177 12.8191 11 12.8191C11.1823 12.8191 11.3572 12.7467 11.4861 12.6177C11.6151 12.4888 11.6875 12.3139 11.6875 12.1316V10.0691H13.75C13.9323 10.0691 14.1072 9.99666 14.2361 9.86773C14.3651 9.7388 14.4375 9.56393 14.4375 9.38159C14.4375 9.19925 14.3651 9.02439 14.2361 8.89546C14.1072 8.76652 13.9323 8.69409 13.75 8.69409H11.6875V6.63159Z" fill="#555EC6"/>
</g>
<defs>
<clipPath id="clip0_184_901">
<rect width="22" height="22" fill="white" transform="translate(0 0.444092)"/>
</clipPath>
</defs>
</svg>
