<svg width="25" height="25" viewBox="0 0 25 25" fill="none" xmlns="http://www.w3.org/2000/svg">
<path d="M3.15649 9.39331H21.1565M7.15649 3.39331V5.39331M17.1565 3.39331V5.39331M6.15649 13.3933H8.15649M6.15649 17.3933H8.15649M11.1565 13.3933H13.1565M11.1565 17.3933H13.1565M16.1565 13.3933H18.1565M16.1565 17.3933H18.1565M6.35649 21.3933H17.9565C19.0766 21.3933 19.6367 21.3933 20.0645 21.1753C20.4408 20.9836 20.7468 20.6776 20.9385 20.3013C21.1565 19.8735 21.1565 19.3134 21.1565 18.1933V8.59331C21.1565 7.47321 21.1565 6.91315 20.9385 6.48533C20.7468 6.10901 20.4408 5.80304 20.0645 5.6113C19.6367 5.39331 19.0766 5.39331 17.9565 5.39331H6.35649C5.23639 5.39331 4.67634 5.39331 4.24851 5.6113C3.87219 5.80304 3.56623 6.10901 3.37448 6.48533C3.15649 6.91315 3.15649 7.47321 3.15649 8.59331V18.1933C3.15649 19.3134 3.15649 19.8735 3.37448 20.3013C3.56623 20.6776 3.87219 20.9836 4.24851 21.1753C4.67634 21.3933 5.23639 21.3933 6.35649 21.3933Z" stroke="#121212" stroke-linecap="round" stroke-linejoin="round"/>
</svg>
