<svg width="24" height="25" viewBox="0 0 24 25" fill="none" xmlns="http://www.w3.org/2000/svg">
<path d="M21 12.7573C21 17.7279 16.9706 21.7573 12 21.7573C7.02944 21.7573 3 17.7279 3 12.7573C3 7.78676 7.02944 3.75732 12 3.75732C16.9706 3.75732 21 7.78676 21 12.7573Z" stroke="#333333" stroke-width="2" stroke-linecap="round" stroke-linejoin="round"/>
<path d="M15.0015 12.0917C15.3354 12.3142 15.5023 12.4255 15.5605 12.5658C15.6113 12.6884 15.6113 12.8262 15.5605 12.9489C15.5023 13.0891 15.3354 13.2004 15.0015 13.423L11.2438 15.9282C10.8397 16.1975 10.6377 16.3322 10.4702 16.3222C10.3243 16.3135 10.1894 16.2413 10.1012 16.1247C10 15.9909 10 15.7481 10 15.2625V10.2521C10 9.76656 10 9.52377 10.1012 9.38993C10.1894 9.27334 10.3243 9.20119 10.4702 9.19247C10.6377 9.18247 10.8397 9.31715 11.2438 9.5865L15.0015 12.0917Z" stroke="#333333" stroke-width="2" stroke-linecap="round" stroke-linejoin="round"/>
</svg>
