<svg width="18" height="18" viewBox="0 0 18 18" fill="none" xmlns="http://www.w3.org/2000/svg">
<g clip-path="url(#clip0_196_458)">
<path d="M17.9996 9.05479C17.9996 4.05304 13.9698 -0.00146484 8.99957 -0.00146484C4.02706 -0.000339844 -0.00268555 4.05304 -0.00268555 9.05591C-0.00268555 13.575 3.28906 17.3213 7.59107 18.0008V11.6727H5.30731V9.05591H7.59332V7.05904C7.59332 4.78991 8.93769 3.53666 10.9931 3.53666C11.9786 3.53666 13.0079 3.71329 13.0079 3.71329V5.94079H11.8728C10.7557 5.94079 10.4069 6.63941 10.4069 7.35604V9.05479H12.9022L12.5039 11.6715H10.4058V17.9997C14.7078 17.3202 17.9996 13.5739 17.9996 9.05479Z" fill="#4657A1"/>
</g>
<defs>
<clipPath id="clip0_196_458">
<rect width="18" height="18" fill="white"/>
</clipPath>
</defs>
</svg>
