<svg width="24" height="24" viewBox="0 0 24 24" fill="none" xmlns="http://www.w3.org/2000/svg">
<g clip-path="url(#clip0_13_680)">
<path d="M23.9993 12.0733C23.9993 5.40429 18.6263 -0.00170898 11.9993 -0.00170898C5.36934 -0.000208984 -0.00366211 5.40429 -0.00366211 12.0748C-0.00366211 18.1003 4.38534 23.0953 10.1213 24.0013V15.5638H7.07634V12.0748H10.1243V9.41229C10.1243 6.38679 11.9168 4.71579 14.6573 4.71579C15.9713 4.71579 17.3438 4.95129 17.3438 4.95129V7.92129H15.8303C14.3408 7.92129 13.8758 8.85279 13.8758 9.80829V12.0733H17.2028L16.6718 15.5623H13.8743V23.9998C19.6103 23.0938 23.9993 18.0988 23.9993 12.0733Z" fill="#4657A1"/>
</g>
<defs>
<clipPath id="clip0_13_680">
<rect width="24" height="24" fill="white"/>
</clipPath>
</defs>
</svg>
