<svg width="30" height="31" viewBox="0 0 30 31" fill="none" xmlns="http://www.w3.org/2000/svg">
<g clip-path="url(#clip0_239_438)">
<path d="M24 15.3834C24 10.4029 19.968 6.36084 15 6.36084C10.032 6.36084 6 10.4029 6 15.3834C6 19.7503 9.096 23.3864 13.2 24.2255V18.0902H11.4V15.3834H13.2V13.1278C13.2 11.3864 14.613 9.96986 16.35 9.96986H18.6V12.6766H16.8C16.305 12.6766 15.9 13.0826 15.9 13.5789V15.3834H18.6V18.0902H15.9V24.3608C20.445 23.9097 24 20.0661 24 15.3834Z" fill="#4657A1"/>
</g>
<circle cx="15" cy="15.3608" r="14.5" stroke="#4657A1"/>
<defs>
<clipPath id="clip0_239_438">
<rect width="18" height="18" fill="white" transform="translate(6 6.36084)"/>
</clipPath>
</defs>
</svg>
