<svg width="32" height="33" viewBox="0 0 32 33" fill="none" xmlns="http://www.w3.org/2000/svg">
<path d="M27 13.3018V14.3018C26.9979 15.9938 26.3837 17.6279 25.2707 18.9023C24.1578 20.1768 22.6213 21.0055 20.945 21.2355C21.6292 22.1111 22.0006 23.1906 22 24.3018V29.3018C22 29.567 21.8946 29.8214 21.7071 30.0089C21.5196 30.1964 21.2652 30.3018 21 30.3018H13C12.7348 30.3018 12.4804 30.1964 12.2929 30.0089C12.1054 29.8214 12 29.567 12 29.3018V27.3018H9C7.67392 27.3018 6.40215 26.775 5.46447 25.8373C4.52678 24.8996 4 23.6279 4 22.3018C4 21.5061 3.68393 20.7431 3.12132 20.1805C2.55871 19.6178 1.79565 19.3018 1 19.3018C0.734784 19.3018 0.48043 19.1964 0.292893 19.0089C0.105357 18.8213 0 18.567 0 18.3018C0 18.0366 0.105357 17.7822 0.292893 17.5947C0.48043 17.4071 0.734784 17.3018 1 17.3018C1.65661 17.3018 2.30679 17.4311 2.91342 17.6824C3.52005 17.9337 4.07124 18.3019 4.53553 18.7662C4.99983 19.2305 5.36812 19.7817 5.6194 20.3884C5.87067 20.995 6 21.6452 6 22.3018C6 23.0974 6.31607 23.8605 6.87868 24.4231C7.44129 24.9857 8.20435 25.3018 9 25.3018H12V24.3018C11.9994 23.1906 12.3708 22.1111 13.055 21.2355C11.3787 21.0055 9.84222 20.1768 8.72928 18.9023C7.61634 17.6279 7.0021 15.9938 7 14.3018V13.3018C7.01245 12.059 7.34341 10.8402 7.96125 9.76178C7.65559 8.77577 7.55754 7.73713 7.67329 6.71134C7.78903 5.68555 8.11606 4.69488 8.63375 3.80177C8.72154 3.64972 8.84781 3.52346 8.99987 3.43569C9.15193 3.34792 9.32443 3.30173 9.5 3.30177C10.6648 3.29934 11.814 3.56935 12.8558 4.09025C13.8976 4.61116 14.8031 5.3685 15.5 6.30177H18.5C19.1969 5.3685 20.1024 4.61116 21.1442 4.09025C22.186 3.56935 23.3352 3.29934 24.5 3.30177C24.6756 3.30173 24.8481 3.34792 25.0001 3.43569C25.1522 3.52346 25.2785 3.64972 25.3662 3.80177C25.884 4.69486 26.211 5.68559 26.3265 6.71142C26.4421 7.73725 26.3437 8.7759 26.0375 9.76178C26.6565 10.8397 26.9879 12.0588 27 13.3018Z" fill="black"/>
</svg>
