<svg width="18" height="19" viewBox="0 0 18 19" fill="none" xmlns="http://www.w3.org/2000/svg">
<g clip-path="url(#clip0_239_100)">
<path d="M9 0.0583496C6.55762 0.0583496 6.2505 0.0695996 5.29087 0.11235C4.33125 0.15735 3.67762 0.3081 3.105 0.53085C2.50436 0.756771 1.9603 1.11115 1.51088 1.56922C1.05309 2.01888 0.698746 2.56287 0.4725 3.16335C0.24975 3.73485 0.097875 4.3896 0.054 5.34585C0.01125 6.30772 0 6.61373 0 9.05947C0 11.503 0.01125 11.809 0.054 12.7686C0.099 13.7271 0.24975 14.3807 0.4725 14.9533C0.703125 15.5451 1.01025 16.0468 1.51088 16.5475C2.01038 17.0481 2.51213 17.3563 3.10388 17.5858C3.67763 17.8086 4.33013 17.9605 5.28863 18.0043C6.24938 18.0471 6.55538 18.0583 9 18.0583C11.4446 18.0583 11.7495 18.0471 12.7103 18.0043C13.6676 17.9593 14.3235 17.8086 14.8961 17.5858C15.4964 17.3598 16.04 17.0054 16.4891 16.5475C16.9897 16.0468 17.2969 15.5451 17.5275 14.9533C17.7491 14.3807 17.901 13.7271 17.946 12.7686C17.9888 11.809 18 11.503 18 9.05835C18 6.61372 17.9888 6.30772 17.946 5.34697C17.901 4.3896 17.7491 3.73485 17.5275 3.16335C17.3013 2.56285 16.9469 2.01886 16.4891 1.56922C16.0398 1.11098 15.4957 0.756576 14.895 0.53085C14.3212 0.3081 13.6665 0.156225 12.7091 0.11235C11.7484 0.0695996 11.4435 0.0583496 8.99775 0.0583496H9.00113H9ZM8.19337 1.6806H9.00113C11.4041 1.6806 11.6887 1.68847 12.6371 1.73235C13.5146 1.77172 13.9916 1.9191 14.3089 2.04172C14.7285 2.20485 15.0289 2.4006 15.3439 2.7156C15.6589 3.0306 15.8535 3.32985 16.0166 3.7506C16.1404 4.06672 16.2866 4.54373 16.326 5.42122C16.3699 6.3696 16.3789 6.65422 16.3789 9.0561C16.3789 11.458 16.3699 11.7437 16.326 12.6921C16.2866 13.5696 16.1392 14.0455 16.0166 14.3627C15.8723 14.7535 15.642 15.1068 15.3427 15.3966C15.0277 15.7116 14.7285 15.9062 14.3078 16.0693C13.9928 16.1931 13.5157 16.3393 12.6371 16.3799C11.6887 16.4226 11.4041 16.4327 9.00113 16.4327C6.59813 16.4327 6.31238 16.4226 5.364 16.3799C4.4865 16.3393 4.01062 16.1931 3.69338 16.0693C3.30244 15.9253 2.94877 15.6954 2.65837 15.3966C2.35884 15.1064 2.12819 14.7527 1.98338 14.3616C1.86075 14.0455 1.71338 13.5685 1.674 12.691C1.63125 11.7426 1.62225 11.458 1.62225 9.05385C1.62225 6.65085 1.63125 6.36735 1.674 5.41897C1.7145 4.54147 1.86075 4.06447 1.9845 3.74722C2.14762 3.3276 2.34337 3.02722 2.65837 2.71222C2.97337 2.39722 3.27262 2.2026 3.69338 2.03947C4.01062 1.91572 4.4865 1.76947 5.364 1.72897C6.19425 1.69072 6.516 1.67947 8.19337 1.67835V1.6806ZM13.8049 3.1746C13.663 3.1746 13.5226 3.20253 13.3916 3.25681C13.2605 3.31108 13.1415 3.39064 13.0412 3.49092C12.9409 3.59121 12.8614 3.71027 12.8071 3.8413C12.7528 3.97233 12.7249 4.11277 12.7249 4.2546C12.7249 4.39643 12.7528 4.53687 12.8071 4.6679C12.8614 4.79893 12.9409 4.91799 13.0412 5.01827C13.1415 5.11856 13.2605 5.19811 13.3916 5.25239C13.5226 5.30666 13.663 5.3346 13.8049 5.3346C14.0913 5.3346 14.366 5.22081 14.5686 5.01827C14.7711 4.81574 14.8849 4.54103 14.8849 4.2546C14.8849 3.96817 14.7711 3.69346 14.5686 3.49092C14.366 3.28838 14.0913 3.1746 13.8049 3.1746ZM9.00113 4.43685C8.38808 4.42729 7.77926 4.53977 7.2101 4.76776C6.64094 4.99575 6.12283 5.33468 5.68592 5.76483C5.24901 6.19497 4.90203 6.70774 4.6652 7.27327C4.42836 7.8388 4.30639 8.44579 4.30639 9.05891C4.30639 9.67203 4.42836 10.279 4.6652 10.8446C4.90203 11.4101 5.24901 11.9229 5.68592 12.353C6.12283 12.7831 6.64094 13.1221 7.2101 13.3501C7.77926 13.5781 8.38808 13.6905 9.00113 13.681C10.2145 13.662 11.3717 13.1668 12.2231 12.302C13.0745 11.4373 13.5516 10.2724 13.5516 9.05891C13.5516 7.84541 13.0745 6.68056 12.2231 5.81582C11.3717 4.95107 10.2145 4.45578 9.00113 4.43685ZM9.00113 6.05797C9.79687 6.05797 10.56 6.37408 11.1227 6.93676C11.6854 7.49944 12.0015 8.2626 12.0015 9.05835C12.0015 9.8541 11.6854 10.6173 11.1227 11.1799C10.56 11.7426 9.79687 12.0587 9.00113 12.0587C8.20538 12.0587 7.44222 11.7426 6.87954 11.1799C6.31686 10.6173 6.00075 9.8541 6.00075 9.05835C6.00075 8.2626 6.31686 7.49944 6.87954 6.93676C7.44222 6.37408 8.20538 6.05797 9.00113 6.05797Z" fill="#666666"/>
</g>
<defs>
<clipPath id="clip0_239_100">
<rect width="18" height="18" fill="white" transform="translate(0 0.0583496)"/>
</clipPath>
</defs>
</svg>
