<svg width="36" height="36" viewBox="0 0 36 36" fill="none" xmlns="http://www.w3.org/2000/svg">
<path d="M18 7C15.0149 7 14.6395 7.01375 13.4666 7.066C12.2938 7.121 11.4949 7.30525 10.795 7.5775C10.0609 7.85363 9.39593 8.28676 8.84663 8.84663C8.2871 9.39621 7.85402 10.0611 7.5775 10.795C7.30525 11.4935 7.11963 12.2937 7.066 13.4625C7.01375 14.6381 7 15.0121 7 18.0014C7 20.9879 7.01375 21.3619 7.066 22.5347C7.121 23.7063 7.30525 24.5051 7.5775 25.205C7.85938 25.9282 8.23475 26.5415 8.84663 27.1534C9.45713 27.7652 10.0704 28.142 10.7936 28.4225C11.4949 28.6947 12.2924 28.8804 13.4639 28.934C14.6381 28.9862 15.0121 29 18 29C20.9879 29 21.3605 28.9862 22.5347 28.934C23.7049 28.879 24.5065 28.6947 25.2064 28.4225C25.94 28.1462 26.6045 27.7131 27.1534 27.1534C27.7652 26.5415 28.1406 25.9282 28.4225 25.205C28.6934 24.5051 28.879 23.7063 28.934 22.5347C28.9862 21.3619 29 20.9879 29 18C29 15.0121 28.9862 14.6381 28.934 13.4639C28.879 12.2938 28.6934 11.4935 28.4225 10.795C28.146 10.0611 27.7129 9.39618 27.1534 8.84663C26.6042 8.28655 25.9392 7.85339 25.205 7.5775C24.5037 7.30525 23.7035 7.11963 22.5334 7.066C21.3591 7.01375 20.9865 7 17.9973 7H18.0014H18ZM17.0141 8.98275H18.0014C20.9384 8.98275 21.2863 8.99238 22.4454 9.046C23.5179 9.09413 24.1009 9.27425 24.4886 9.42412C25.0015 9.6235 25.3686 9.86275 25.7536 10.2478C26.1386 10.6328 26.3765 10.9985 26.5759 11.5128C26.7271 11.8991 26.9059 12.4821 26.954 13.5546C27.0076 14.7138 27.0186 15.0616 27.0186 17.9973C27.0186 20.9329 27.0076 21.2821 26.954 22.4412C26.9059 23.5138 26.7257 24.0954 26.5759 24.4831C26.3995 24.9607 26.118 25.3926 25.7522 25.7467C25.3672 26.1318 25.0015 26.3696 24.4873 26.569C24.1023 26.7203 23.5192 26.899 22.4454 26.9485C21.2863 27.0007 20.9384 27.0131 18.0014 27.0131C15.0644 27.0131 14.7151 27.0007 13.556 26.9485C12.4835 26.899 11.9019 26.7203 11.5141 26.569C11.0363 26.3929 10.604 26.1119 10.2491 25.7467C9.88303 25.392 9.60112 24.9598 9.42412 24.4818C9.27425 24.0954 9.09413 23.5124 9.046 22.4399C8.99375 21.2808 8.98275 20.9329 8.98275 17.9945C8.98275 15.0575 8.99375 14.711 9.046 13.5519C9.0955 12.4794 9.27425 11.8964 9.4255 11.5086C9.62488 10.9957 9.86412 10.6286 10.2491 10.2436C10.6341 9.85862 10.9999 9.62075 11.5141 9.42138C11.9019 9.27013 12.4835 9.09138 13.556 9.04188C14.5708 8.99513 14.964 8.98138 17.0141 8.98V8.98275ZM23.8726 10.8087C23.6993 10.8087 23.5276 10.8429 23.3675 10.9092C23.2073 10.9756 23.0618 11.0728 22.9392 11.1954C22.8167 11.3179 22.7194 11.4635 22.6531 11.6236C22.5868 11.7838 22.5526 11.9554 22.5526 12.1287C22.5526 12.3021 22.5868 12.4737 22.6531 12.6339C22.7194 12.794 22.8167 12.9396 22.9392 13.0621C23.0618 13.1847 23.2073 13.2819 23.3675 13.3483C23.5276 13.4146 23.6993 13.4488 23.8726 13.4488C24.2227 13.4488 24.5585 13.3097 24.806 13.0621C25.0536 12.8146 25.1926 12.4788 25.1926 12.1287C25.1926 11.7787 25.0536 11.4429 24.806 11.1954C24.5585 10.9478 24.2227 10.8087 23.8726 10.8087ZM18.0014 12.3515C17.2521 12.3398 16.508 12.4773 15.8123 12.7559C15.1167 13.0346 14.4835 13.4488 13.9495 13.9746C13.4155 14.5003 12.9914 15.127 12.7019 15.8182C12.4124 16.5094 12.2634 17.2513 12.2634 18.0007C12.2634 18.7501 12.4124 19.4919 12.7019 20.1831C12.9914 20.8743 13.4155 21.5011 13.9495 22.0268C14.4835 22.5525 15.1167 22.9668 15.8123 23.2454C16.508 23.5241 17.2521 23.6616 18.0014 23.6499C19.4844 23.6267 20.8988 23.0214 21.9393 21.9645C22.9799 20.9076 23.5631 19.4839 23.5631 18.0007C23.5631 16.5175 22.9799 15.0938 21.9393 14.0369C20.8988 12.98 19.4844 12.3746 18.0014 12.3515ZM18.0014 14.3329C18.974 14.3329 19.9067 14.7192 20.5944 15.407C21.2821 16.0947 21.6685 17.0274 21.6685 18C21.6685 18.9726 21.2821 19.9053 20.5944 20.593C19.9067 21.2808 18.974 21.6671 18.0014 21.6671C17.0288 21.6671 16.096 21.2808 15.4083 20.593C14.7206 19.9053 14.3342 18.9726 14.3342 18C14.3342 17.0274 14.7206 16.0947 15.4083 15.407C16.096 14.7192 17.0288 14.3329 18.0014 14.3329Z" fill="#FF6227"/>
<circle cx="18" cy="18" r="17.5" stroke="#FF6227"/>
</svg>
