<svg width="30" height="31" viewBox="0 0 30 31" fill="none" xmlns="http://www.w3.org/2000/svg">
<g clip-path="url(#clip0_239_520)">
<path d="M15 6.36084C12.5576 6.36084 12.2505 6.37209 11.2909 6.41484C10.3313 6.45984 9.67762 6.61059 9.105 6.83334C8.50436 7.05926 7.9603 7.41364 7.51088 7.87171C7.05309 8.32137 6.69875 8.86536 6.4725 9.46584C6.24975 10.0373 6.09787 10.6921 6.054 11.6483C6.01125 12.6102 6 12.9162 6 15.362C6 17.8055 6.01125 18.1115 6.054 19.0711C6.099 20.0296 6.24975 20.6832 6.4725 21.2558C6.70312 21.8476 7.01025 22.3493 7.51088 22.85C8.01038 23.3506 8.51213 23.6588 9.10388 23.8883C9.67763 24.1111 10.3301 24.263 11.2886 24.3068C12.2494 24.3496 12.5554 24.3608 15 24.3608C17.4446 24.3608 17.7495 24.3496 18.7103 24.3068C19.6676 24.2618 20.3235 24.1111 20.8961 23.8883C21.4964 23.6623 22.04 23.3079 22.4891 22.85C22.9897 22.3493 23.2969 21.8476 23.5275 21.2558C23.7491 20.6832 23.901 20.0296 23.946 19.0711C23.9888 18.1115 24 17.8055 24 15.3608C24 12.9162 23.9888 12.6102 23.946 11.6495C23.901 10.6921 23.7491 10.0373 23.5275 9.46584C23.3013 8.86534 22.9469 8.32135 22.4891 7.87171C22.0398 7.41348 21.4957 7.05907 20.895 6.83334C20.3212 6.61059 19.6665 6.45871 18.7091 6.41484C17.7484 6.37209 17.4435 6.36084 14.9978 6.36084H15.0011H15ZM14.1934 7.98309H15.0011C17.4041 7.98309 17.6887 7.99096 18.6371 8.03484C19.5146 8.07421 19.9916 8.22159 20.3089 8.34421C20.7285 8.50734 21.0289 8.70309 21.3439 9.01809C21.6589 9.33309 21.8535 9.63234 22.0166 10.0531C22.1404 10.3692 22.2866 10.8462 22.326 11.7237C22.3699 12.6721 22.3789 12.9567 22.3789 15.3586C22.3789 17.7605 22.3699 18.0462 22.326 18.9946C22.2866 19.8721 22.1392 20.348 22.0166 20.6652C21.8723 21.056 21.642 21.4093 21.3427 21.6991C21.0277 22.0141 20.7285 22.2087 20.3078 22.3718C19.9928 22.4956 19.5157 22.6418 18.6371 22.6823C17.6887 22.7251 17.4041 22.7352 15.0011 22.7352C12.5981 22.7352 12.3124 22.7251 11.364 22.6823C10.4865 22.6418 10.0106 22.4956 9.69338 22.3718C9.30244 22.2278 8.94877 21.9979 8.65837 21.6991C8.35884 21.4089 8.12819 21.0552 7.98338 20.6641C7.86075 20.348 7.71338 19.871 7.674 18.9935C7.63125 18.0451 7.62225 17.7605 7.62225 15.3563C7.62225 12.9533 7.63125 12.6698 7.674 11.7215C7.7145 10.844 7.86075 10.367 7.9845 10.0497C8.14762 9.63009 8.34337 9.32971 8.65837 9.01471C8.97337 8.69971 9.27262 8.50509 9.69338 8.34196C10.0106 8.21821 10.4865 8.07196 11.364 8.03146C12.1943 7.99321 12.516 7.98196 14.1934 7.98084V7.98309ZM19.8049 9.47709C19.663 9.47709 19.5226 9.50502 19.3916 9.5593C19.2605 9.61358 19.1415 9.69313 19.0412 9.79341C18.9409 9.8937 18.8614 10.0128 18.8071 10.1438C18.7528 10.2748 18.7249 10.4153 18.7249 10.5571C18.7249 10.6989 18.7528 10.8394 18.8071 10.9704C18.8614 11.1014 18.9409 11.2205 19.0412 11.3208C19.1415 11.4211 19.2605 11.5006 19.3916 11.5549C19.5226 11.6092 19.663 11.6371 19.8049 11.6371C20.0913 11.6371 20.366 11.5233 20.5686 11.3208C20.7711 11.1182 20.8849 10.8435 20.8849 10.5571C20.8849 10.2707 20.7711 9.99595 20.5686 9.79341C20.366 9.59088 20.0913 9.47709 19.8049 9.47709ZM15.0011 10.7393C14.3881 10.7298 13.7793 10.8423 13.2101 11.0702C12.6409 11.2982 12.1228 11.6372 11.6859 12.0673C11.249 12.4975 10.902 13.0102 10.6652 13.5758C10.4284 14.1413 10.3064 14.7483 10.3064 15.3614C10.3064 15.9745 10.4284 16.5815 10.6652 17.147C10.902 17.7126 11.249 18.2253 11.6859 18.6555C12.1228 19.0856 12.6409 19.4246 13.2101 19.6526C13.7793 19.8805 14.3881 19.993 15.0011 19.9835C16.2145 19.9645 17.3717 19.4692 18.2231 18.6045C19.0745 17.7398 19.5516 16.5749 19.5516 15.3614C19.5516 14.1479 19.0745 12.9831 18.2231 12.1183C17.3717 11.2536 16.2145 10.7583 15.0011 10.7393ZM15.0011 12.3605C15.7969 12.3605 16.56 12.6766 17.1227 13.2393C17.6854 13.8019 18.0015 14.5651 18.0015 15.3608C18.0015 16.1566 17.6854 16.9197 17.1227 17.4824C16.56 18.0451 15.7969 18.3612 15.0011 18.3612C14.2054 18.3612 13.4422 18.0451 12.8795 17.4824C12.3169 16.9197 12.0008 16.1566 12.0008 15.3608C12.0008 14.5651 12.3169 13.8019 12.8795 13.2393C13.4422 12.6766 14.2054 12.3605 15.0011 12.3605Z" fill="#4657A1"/>
</g>
<circle cx="15" cy="15.3608" r="14.5" stroke="#4657A1"/>
<defs>
<clipPath id="clip0_239_520">
<rect width="18" height="18" fill="white" transform="translate(6 6.36084)"/>
</clipPath>
</defs>
</svg>
