<svg width="24" height="24" viewBox="0 0 24 24" fill="none" xmlns="http://www.w3.org/2000/svg">
<path d="M12.0012 9.00025C11.2056 9.00025 10.4425 9.31632 9.8799 9.87892C9.31729 10.4415 9.00122 11.2046 9.00122 12.0002C9.00122 12.7959 9.31729 13.559 9.8799 14.1216C10.4425 14.6842 11.2056 15.0002 12.0012 15.0002C12.7969 15.0002 13.5599 14.6842 14.1225 14.1216C14.6852 13.559 15.0012 12.7959 15.0012 12.0002C15.0012 11.2046 14.6852 10.4415 14.1225 9.87892C13.5599 9.31632 12.7969 9.00025 12.0012 9.00025ZM12.0012 7.00024C13.3273 7.00024 14.5991 7.52703 15.5368 8.46471C16.4744 9.40239 17.0012 10.6742 17.0012 12.0002C17.0012 13.3263 16.4744 14.5981 15.5368 15.5358C14.5991 16.4735 13.3273 17.0002 12.0012 17.0002C10.6751 17.0002 9.40337 16.4735 8.46569 15.5358C7.52801 14.5981 7.00122 13.3263 7.00122 12.0002C7.00122 10.6742 7.52801 9.40239 8.46569 8.46471C9.40337 7.52703 10.6751 7.00024 12.0012 7.00024ZM18.5012 6.75024C18.5012 7.08177 18.3695 7.39971 18.1351 7.63413C17.9007 7.86855 17.5827 8.00025 17.2512 8.00025C16.9197 8.00025 16.6018 7.86855 16.3673 7.63413C16.1329 7.39971 16.0012 7.08177 16.0012 6.75024C16.0012 6.41872 16.1329 6.10078 16.3673 5.86636C16.6018 5.63194 16.9197 5.50024 17.2512 5.50024C17.5827 5.50024 17.9007 5.63194 18.1351 5.86636C18.3695 6.10078 18.5012 6.41872 18.5012 6.75024ZM12.0012 4.00024C9.52722 4.00024 9.12322 4.00724 7.97222 4.05824C7.18822 4.09524 6.66222 4.20024 6.17422 4.39024C5.76584 4.54018 5.39663 4.78051 5.09422 5.09324C4.78123 5.39564 4.54057 5.76483 4.39022 6.17324C4.20022 6.66324 4.09522 7.18824 4.05922 7.97124C4.00722 9.07525 4.00022 9.46125 4.00022 12.0002C4.00022 14.4752 4.00722 14.8782 4.05822 16.0292C4.09522 16.8122 4.20022 17.3392 4.38922 17.8262C4.55922 18.2612 4.75922 18.5742 5.09122 18.9062C5.42822 19.2422 5.74122 19.4432 6.17122 19.6092C6.66522 19.8002 7.19122 19.9062 7.97122 19.9422C9.07522 19.9942 9.46122 20.0002 12.0002 20.0002C14.4752 20.0002 14.8782 19.9932 16.0292 19.9422C16.8112 19.9052 17.3372 19.8002 17.8262 19.6112C18.2342 19.4606 18.6033 19.2203 18.9062 18.9082C19.2432 18.5722 19.4442 18.2592 19.6102 17.8282C19.8002 17.3362 19.9062 16.8102 19.9422 16.0282C19.9942 14.9252 20.0002 14.5382 20.0002 12.0002C20.0002 9.52625 19.9932 9.12225 19.9422 7.97124C19.9052 7.18924 19.7992 6.66124 19.6102 6.17324C19.4595 5.76526 19.2193 5.39623 18.9072 5.09324C18.605 4.78009 18.2357 4.53941 17.8272 4.38924C17.3372 4.19924 16.8112 4.09424 16.0292 4.05824C14.9262 4.00624 14.5412 4.00024 12.0012 4.00024ZM12.0012 2.00024C14.7182 2.00024 15.0572 2.01024 16.1242 2.06024C17.1882 2.11024 17.9142 2.27724 18.5512 2.52524C19.2112 2.77924 19.7672 3.12324 20.3232 3.67824C20.8317 4.17814 21.2252 4.78283 21.4762 5.45024C21.7232 6.08724 21.8912 6.81324 21.9412 7.87824C21.9882 8.94424 22.0012 9.28325 22.0012 12.0002C22.0012 14.7172 21.9912 15.0562 21.9412 16.1222C21.8912 17.1872 21.7232 17.9122 21.4762 18.5502C21.2259 19.218 20.8323 19.8228 20.3232 20.3222C19.8232 20.8306 19.2185 21.224 18.5512 21.4752C17.9142 21.7222 17.1882 21.8902 16.1242 21.9402C15.0572 21.9872 14.7182 22.0002 12.0012 22.0002C9.28422 22.0002 8.94522 21.9902 7.87822 21.9402C6.81422 21.8902 6.08922 21.7222 5.45122 21.4752C4.78355 21.2247 4.17875 20.8312 3.67922 20.3222C3.17065 19.8224 2.77718 19.2177 2.52622 18.5502C2.27822 17.9132 2.11122 17.1872 2.06122 16.1222C2.01322 15.0562 2.00122 14.7172 2.00122 12.0002C2.00122 9.28325 2.01122 8.94424 2.06122 7.87824C2.11122 6.81324 2.27822 6.08824 2.52622 5.45024C2.77646 4.78242 3.17002 4.17757 3.67922 3.67824C4.17889 3.16948 4.78365 2.77597 5.45122 2.52524C6.08822 2.27724 6.81322 2.11024 7.87822 2.06024C8.94522 2.01324 9.28422 2.00024 12.0012 2.00024Z" fill="#4657A1"/>
</svg>
