<svg width="25" height="25" viewBox="0 0 25 25" fill="none" xmlns="http://www.w3.org/2000/svg">
<g clip-path="url(#clip0_484_1280)">
<path d="M12.3203 0.82666C9.06381 0.82666 8.65431 0.84166 7.37481 0.89866C6.09531 0.95866 5.22381 1.15966 4.46031 1.45666C3.65945 1.75789 2.93405 2.2304 2.33481 2.84116C1.72443 3.4407 1.25197 4.16602 0.950312 4.96666C0.653312 5.72866 0.450813 6.60166 0.392312 7.87666C0.335313 9.15916 0.320312 9.56716 0.320312 12.8282C0.320312 16.0862 0.335313 16.4942 0.392312 17.7737C0.452312 19.0517 0.653312 19.9232 0.950312 20.6867C1.25781 21.4757 1.66731 22.1447 2.33481 22.8122C3.00081 23.4797 3.66981 23.8907 4.45881 24.1967C5.22381 24.4937 6.09381 24.6962 7.37181 24.7547C8.65281 24.8117 9.06081 24.8267 12.3203 24.8267C15.5798 24.8267 15.9863 24.8117 17.2673 24.7547C18.5438 24.6947 19.4183 24.4937 20.1818 24.1967C20.9822 23.8953 21.707 23.4228 22.3058 22.8122C22.9733 22.1447 23.3828 21.4757 23.6903 20.6867C23.9858 19.9232 24.1883 19.0517 24.2483 17.7737C24.3053 16.4942 24.3203 16.0862 24.3203 12.8267C24.3203 9.56716 24.3053 9.15916 24.2483 7.87816C24.1883 6.60166 23.9858 5.72866 23.6903 4.96666C23.3887 4.166 22.9162 3.44067 22.3058 2.84116C21.7068 2.23017 20.9813 1.75763 20.1803 1.45666C19.4153 1.15966 18.5423 0.95716 17.2658 0.89866C15.9848 0.84166 15.5783 0.82666 12.3173 0.82666H12.3218H12.3203ZM11.2448 2.98966H12.3218C15.5258 2.98966 15.9053 3.00016 17.1698 3.05866C18.3398 3.11116 18.9758 3.30766 19.3988 3.47116C19.9583 3.68866 20.3588 3.94966 20.7788 4.36966C21.1988 4.78966 21.4583 5.18866 21.6758 5.74966C21.8408 6.17116 22.0358 6.80716 22.0883 7.97716C22.1468 9.24166 22.1588 9.62116 22.1588 12.8237C22.1588 16.0262 22.1468 16.4072 22.0883 17.6717C22.0358 18.8417 21.8393 19.4762 21.6758 19.8992C21.4834 20.4202 21.1764 20.8913 20.7773 21.2777C20.3573 21.6977 19.9583 21.9572 19.3973 22.1747C18.9773 22.3397 18.3413 22.5347 17.1698 22.5887C15.9053 22.6457 15.5258 22.6592 12.3218 22.6592C9.11781 22.6592 8.73681 22.6457 7.47231 22.5887C6.30231 22.5347 5.66781 22.3397 5.24481 22.1747C4.72356 21.9825 4.252 21.676 3.86481 21.2777C3.46544 20.8907 3.1579 20.4191 2.96481 19.8977C2.80131 19.4762 2.60481 18.8402 2.55231 17.6702C2.49531 16.4057 2.48331 16.0262 2.48331 12.8207C2.48331 9.61666 2.49531 9.23866 2.55231 7.97416C2.60631 6.80416 2.80131 6.16816 2.96631 5.74516C3.18381 5.18566 3.44481 4.78516 3.86481 4.36516C4.28481 3.94516 4.68381 3.68566 5.24481 3.46816C5.66781 3.30316 6.30231 3.10816 7.47231 3.05416C8.57931 3.00316 9.00831 2.98816 11.2448 2.98666V2.98966ZM18.7268 4.98166C18.5377 4.98166 18.3505 5.01891 18.1757 5.09127C18.001 5.16364 17.8423 5.26971 17.7086 5.40343C17.5749 5.53714 17.4688 5.69589 17.3964 5.8706C17.3241 6.0453 17.2868 6.23256 17.2868 6.42166C17.2868 6.61076 17.3241 6.79802 17.3964 6.97272C17.4688 7.14743 17.5749 7.30618 17.7086 7.43989C17.8423 7.57361 18.001 7.67968 18.1757 7.75205C18.3505 7.82441 18.5377 7.86166 18.7268 7.86166C19.1087 7.86166 19.475 7.70995 19.745 7.43989C20.0151 7.16984 20.1668 6.80357 20.1668 6.42166C20.1668 6.03975 20.0151 5.67348 19.745 5.40343C19.475 5.13337 19.1087 4.98166 18.7268 4.98166ZM12.3218 6.66466C11.5044 6.65191 10.6927 6.80189 9.93378 7.10587C9.17491 7.40985 8.48409 7.86177 7.90154 8.4353C7.31899 9.00882 6.85636 9.69251 6.54057 10.4466C6.22479 11.2006 6.06216 12.0099 6.06216 12.8274C6.06216 13.6449 6.22479 14.4542 6.54057 15.2083C6.85636 15.9623 7.31899 16.646 7.90154 17.2195C8.48409 17.7931 9.17491 18.245 9.93378 18.5489C10.6927 18.8529 11.5044 19.0029 12.3218 18.9902C13.9396 18.9649 15.4826 18.3045 16.6178 17.1515C17.7529 15.9985 18.3892 14.4454 18.3892 12.8274C18.3892 11.2094 17.7529 9.65628 16.6178 8.50328C15.4826 7.35029 13.9396 6.6899 12.3218 6.66466ZM12.3218 8.82616C13.3828 8.82616 14.4004 9.24764 15.1506 9.99788C15.9008 10.7481 16.3223 11.7657 16.3223 12.8267C16.3223 13.8877 15.9008 14.9052 15.1506 15.6554C14.4004 16.4057 13.3828 16.8272 12.3218 16.8272C11.2608 16.8272 10.2433 16.4057 9.49303 15.6554C8.74279 14.9052 8.32131 13.8877 8.32131 12.8267C8.32131 11.7657 8.74279 10.7481 9.49303 9.99788C10.2433 9.24764 11.2608 8.82616 12.3218 8.82616Z" fill="white"/>
</g>
<defs>
<clipPath id="clip0_484_1280">
<rect width="24" height="24" fill="white" transform="translate(0.320312 0.82666)"/>
</clipPath>
</defs>
</svg>
