<svg width="36" height="37" viewBox="0 0 36 37" fill="none" xmlns="http://www.w3.org/2000/svg">
<path d="M18 7.44409C15.0149 7.44409 14.6395 7.45784 13.4666 7.51009C12.2938 7.56509 11.4949 7.74934 10.795 8.02159C10.0609 8.29772 9.39593 8.73085 8.84663 9.29072C8.2871 9.8403 7.85402 10.5052 7.5775 11.2391C7.30525 11.9376 7.11963 12.7378 7.066 13.9066C7.01375 15.0822 7 15.4562 7 18.4455C7 21.432 7.01375 21.806 7.066 22.9788C7.121 24.1503 7.30525 24.9492 7.5775 25.6491C7.85938 26.3723 8.23475 26.9856 8.84663 27.5975C9.45713 28.2093 10.0704 28.5861 10.7936 28.8666C11.4949 29.1388 12.2924 29.3245 13.4639 29.3781C14.6381 29.4303 15.0121 29.4441 18 29.4441C20.9879 29.4441 21.3605 29.4303 22.5347 29.3781C23.7049 29.3231 24.5065 29.1388 25.2064 28.8666C25.94 28.5903 26.6045 28.1572 27.1534 27.5975C27.7652 26.9856 28.1406 26.3723 28.4225 25.6491C28.6934 24.9492 28.879 24.1503 28.934 22.9788C28.9862 21.806 29 21.432 29 18.4441C29 15.4562 28.9862 15.0822 28.934 13.908C28.879 12.7378 28.6934 11.9376 28.4225 11.2391C28.146 10.5052 27.7129 9.84027 27.1534 9.29072C26.6042 8.73065 25.9392 8.29748 25.205 8.02159C24.5037 7.74934 23.7035 7.56372 22.5334 7.51009C21.3591 7.45784 20.9865 7.44409 17.9973 7.44409H18.0014H18ZM17.0141 9.42684H18.0014C20.9384 9.42684 21.2863 9.43647 22.4454 9.49009C23.5179 9.53822 24.1009 9.71834 24.4886 9.86822C25.0015 10.0676 25.3686 10.3068 25.7536 10.6918C26.1386 11.0768 26.3765 11.4426 26.5759 11.9568C26.7271 12.3432 26.9059 12.9262 26.954 13.9987C27.0076 15.1578 27.0186 15.5057 27.0186 18.4413C27.0186 21.377 27.0076 21.7262 26.954 22.8853C26.9059 23.9578 26.7257 24.5395 26.5759 24.9272C26.3995 25.4048 26.118 25.8367 25.7522 26.1908C25.3672 26.5758 25.0015 26.8137 24.4873 27.0131C24.1023 27.1643 23.5192 27.3431 22.4454 27.3926C21.2863 27.4448 20.9384 27.4572 18.0014 27.4572C15.0644 27.4572 14.7151 27.4448 13.556 27.3926C12.4835 27.3431 11.9019 27.1643 11.5141 27.0131C11.0363 26.837 10.604 26.556 10.2491 26.1908C9.88303 25.8361 9.60112 25.4039 9.42412 24.9258C9.27425 24.5395 9.09413 23.9565 9.046 22.884C8.99375 21.7248 8.98275 21.377 8.98275 18.4386C8.98275 15.5016 8.99375 15.1551 9.046 13.996C9.0955 12.9235 9.27425 12.3405 9.4255 11.9527C9.62488 11.4398 9.86412 11.0727 10.2491 10.6877C10.6341 10.3027 10.9999 10.0648 11.5141 9.86547C11.9019 9.71422 12.4835 9.53547 13.556 9.48597C14.5708 9.43922 14.964 9.42547 17.0141 9.42409V9.42684ZM23.8726 11.2528C23.6993 11.2528 23.5276 11.287 23.3675 11.3533C23.2073 11.4197 23.0618 11.5169 22.9392 11.6395C22.8167 11.762 22.7194 11.9075 22.6531 12.0677C22.5868 12.2278 22.5526 12.3995 22.5526 12.5728C22.5526 12.7462 22.5868 12.9178 22.6531 13.078C22.7194 13.2381 22.8167 13.3836 22.9392 13.5062C23.0618 13.6288 23.2073 13.726 23.3675 13.7924C23.5276 13.8587 23.6993 13.8928 23.8726 13.8928C24.2227 13.8928 24.5585 13.7538 24.806 13.5062C25.0536 13.2587 25.1926 12.9229 25.1926 12.5728C25.1926 12.2228 25.0536 11.887 24.806 11.6395C24.5585 11.3919 24.2227 11.2528 23.8726 11.2528ZM18.0014 12.7956C17.2521 12.7839 16.508 12.9214 15.8123 13.2C15.1167 13.4787 14.4835 13.8929 13.9495 14.4187C13.4155 14.9444 12.9914 15.5711 12.7019 16.2623C12.4124 16.9535 12.2634 17.6954 12.2634 18.4448C12.2634 19.1941 12.4124 19.936 12.7019 20.6272C12.9914 21.3184 13.4155 21.9451 13.9495 22.4709C14.4835 22.9966 15.1167 23.4109 15.8123 23.6895C16.508 23.9682 17.2521 24.1057 18.0014 24.094C19.4844 24.0708 20.8988 23.4655 21.9393 22.4086C22.9799 21.3516 23.5631 19.928 23.5631 18.4448C23.5631 16.9616 22.9799 15.5379 21.9393 14.481C20.8988 13.4241 19.4844 12.8187 18.0014 12.7956ZM18.0014 14.777C18.974 14.777 19.9067 15.1633 20.5944 15.851C21.2821 16.5388 21.6685 17.4715 21.6685 18.4441C21.6685 19.4167 21.2821 20.3494 20.5944 21.0371C19.9067 21.7249 18.974 22.1112 18.0014 22.1112C17.0288 22.1112 16.096 21.7249 15.4083 21.0371C14.7206 20.3494 14.3342 19.4167 14.3342 18.4441C14.3342 17.4715 14.7206 16.5388 15.4083 15.851C16.096 15.1633 17.0288 14.777 18.0014 14.777Z" fill="#777777"/>
<circle cx="18" cy="18.4441" r="17.5" stroke="#999999"/>
</svg>
