<svg width="18" height="19" viewBox="0 0 18 19" fill="none" xmlns="http://www.w3.org/2000/svg">
<g clip-path="url(#clip0_239_99)">
<path d="M16 0.0583496C16.5304 0.0583496 17.0391 0.269063 17.4142 0.644136C17.7893 1.01921 18 1.52792 18 2.05835V16.0583C18 16.5888 17.7893 17.0975 17.4142 17.4726C17.0391 17.8476 16.5304 18.0583 16 18.0583H2C1.46957 18.0583 0.960859 17.8476 0.585786 17.4726C0.210714 17.0975 0 16.5888 0 16.0583V2.05835C0 1.52792 0.210714 1.01921 0.585786 0.644136C0.960859 0.269063 1.46957 0.0583496 2 0.0583496H16ZM15.5 15.5583V10.2583C15.5 9.39374 15.1565 8.56455 14.5452 7.95318C13.9338 7.34181 13.1046 6.99835 12.24 6.99835C11.39 6.99835 10.4 7.51835 9.92 8.29835V7.18835H7.13V15.5583H9.92V10.6283C9.92 9.85835 10.54 9.22835 11.31 9.22835C11.6813 9.22835 12.0374 9.37585 12.2999 9.6384C12.5625 9.90095 12.71 10.257 12.71 10.6283V15.5583H15.5ZM3.88 5.61835C4.32556 5.61835 4.75288 5.44135 5.06794 5.12629C5.383 4.81123 5.56 4.38391 5.56 3.93835C5.56 3.00835 4.81 2.24835 3.88 2.24835C3.43178 2.24835 3.00193 2.4264 2.68499 2.74334C2.36805 3.06028 2.19 3.49013 2.19 3.93835C2.19 4.86835 2.95 5.61835 3.88 5.61835ZM5.27 15.5583V7.18835H2.5V15.5583H5.27Z" fill="#666666"/>
</g>
<defs>
<clipPath id="clip0_239_99">
<rect width="18" height="18" fill="white" transform="translate(0 0.0583496)"/>
</clipPath>
</defs>
</svg>
