<svg width="36" height="37" viewBox="0 0 36 37" fill="none" xmlns="http://www.w3.org/2000/svg">
<path d="M26.5556 7.44409C27.2039 7.44409 27.8256 7.70163 28.284 8.16005C28.7425 8.61848 29 9.24023 29 9.88854V26.9996C29 27.648 28.7425 28.2697 28.284 28.7281C27.8256 29.1866 27.2039 29.4441 26.5556 29.4441H9.44444C8.79614 29.4441 8.17438 29.1866 7.71596 28.7281C7.25754 28.2697 7 27.648 7 26.9996V9.88854C7 9.24023 7.25754 8.61848 7.71596 8.16005C8.17438 7.70163 8.79614 7.44409 9.44444 7.44409H26.5556ZM25.9444 26.3885V19.9108C25.9444 18.854 25.5247 17.8406 24.7774 17.0933C24.0302 16.3461 23.0167 15.9263 21.96 15.9263C20.9211 15.9263 19.7111 16.5619 19.1244 17.5152V16.1585H15.7144V26.3885H19.1244V20.363C19.1244 19.4219 19.8822 18.6519 20.8233 18.6519C21.2771 18.6519 21.7124 18.8321 22.0333 19.153C22.3542 19.4739 22.5344 19.9092 22.5344 20.363V26.3885H25.9444ZM11.7422 14.2396C12.2868 14.2396 12.8091 14.0233 13.1941 13.6382C13.5792 13.2532 13.7956 12.7309 13.7956 12.1863C13.7956 11.0496 12.8789 10.1208 11.7422 10.1208C11.1944 10.1208 10.669 10.3384 10.2817 10.7257C9.89429 11.1131 9.67667 11.6385 9.67667 12.1863C9.67667 13.323 10.6056 14.2396 11.7422 14.2396ZM13.4411 26.3885V16.1585H10.0556V26.3885H13.4411Z" fill="#777777"/>
<circle cx="18" cy="18.4441" r="17.5" stroke="#999999"/>
</svg>
