<svg width="36" height="36" viewBox="0 0 36 36" fill="none" xmlns="http://www.w3.org/2000/svg">
<path d="M26.5556 7C27.2039 7 27.8256 7.25754 28.284 7.71596C28.7425 8.17438 29 8.79614 29 9.44444V26.5556C29 27.2039 28.7425 27.8256 28.284 28.284C27.8256 28.7425 27.2039 29 26.5556 29H9.44444C8.79614 29 8.17438 28.7425 7.71596 28.284C7.25754 27.8256 7 27.2039 7 26.5556V9.44444C7 8.79614 7.25754 8.17438 7.71596 7.71596C8.17438 7.25754 8.79614 7 9.44444 7H26.5556ZM25.9444 25.9444V19.4667C25.9444 18.4099 25.5247 17.3965 24.7774 16.6492C24.0302 15.902 23.0167 15.4822 21.96 15.4822C20.9211 15.4822 19.7111 16.1178 19.1244 17.0711V15.7144H15.7144V25.9444H19.1244V19.9189C19.1244 18.9778 19.8822 18.2078 20.8233 18.2078C21.2771 18.2078 21.7124 18.3881 22.0333 18.709C22.3542 19.0298 22.5344 19.4651 22.5344 19.9189V25.9444H25.9444ZM11.7422 13.7956C12.2868 13.7956 12.8091 13.5792 13.1941 13.1941C13.5792 12.8091 13.7956 12.2868 13.7956 11.7422C13.7956 10.6056 12.8789 9.67667 11.7422 9.67667C11.1944 9.67667 10.669 9.89429 10.2817 10.2817C9.89429 10.669 9.67667 11.1944 9.67667 11.7422C9.67667 12.8789 10.6056 13.7956 11.7422 13.7956ZM13.4411 25.9444V15.7144H10.0556V25.9444H13.4411Z" fill="#FF6227"/>
<circle cx="18" cy="18" r="17.5" stroke="#FF6227"/>
</svg>
