<svg width="221" height="19" viewBox="0 0 221 19" fill="none" xmlns="http://www.w3.org/2000/svg">
<path d="M9.81 3.17C9.73 3.31 9.64333 3.41333 9.55 3.48C9.46333 3.54 9.35333 3.57 9.22 3.57C9.08 3.57 8.92667 3.52 8.76 3.42C8.6 3.31333 8.40667 3.19667 8.18 3.07C7.95333 2.94333 7.68667 2.83 7.38 2.73C7.08 2.62333 6.72333 2.57 6.31 2.57C5.93667 2.57 5.61 2.61667 5.33 2.71C5.05 2.79667 4.81333 2.92 4.62 3.08C4.43333 3.24 4.29333 3.43333 4.2 3.66C4.10667 3.88 4.06 4.12333 4.06 4.39C4.06 4.73 4.15333 5.01333 4.34 5.24C4.53333 5.46667 4.78667 5.66 5.1 5.82C5.41333 5.98 5.77 6.12333 6.17 6.25C6.57 6.37667 6.98 6.51333 7.4 6.66C7.82 6.8 8.23 6.96667 8.63 7.16C9.03 7.34667 9.38667 7.58667 9.7 7.88C10.0133 8.16667 10.2633 8.52 10.45 8.94C10.6433 9.36 10.74 9.87 10.74 10.47C10.74 11.1233 10.6267 11.7367 10.4 12.31C10.18 12.8767 9.85333 13.3733 9.42 13.8C8.99333 14.22 8.47 14.5533 7.85 14.8C7.23 15.04 6.52 15.16 5.72 15.16C5.26 15.16 4.80667 15.1133 4.36 15.02C3.91333 14.9333 3.48333 14.8067 3.07 14.64C2.66333 14.4733 2.28 14.2733 1.92 14.04C1.56 13.8067 1.24 13.5467 0.96 13.26L1.75 11.97C1.81667 11.8767 1.90333 11.8 2.01 11.74C2.11667 11.6733 2.23 11.64 2.35 11.64C2.51667 11.64 2.69667 11.71 2.89 11.85C3.08333 11.9833 3.31333 12.1333 3.58 12.3C3.84667 12.4667 4.15667 12.62 4.51 12.76C4.87 12.8933 5.3 12.96 5.8 12.96C6.56667 12.96 7.16 12.78 7.58 12.42C8 12.0533 8.21 11.53 8.21 10.85C8.21 10.47 8.11333 10.16 7.92 9.92C7.73333 9.68 7.48333 9.48 7.17 9.32C6.85667 9.15333 6.5 9.01333 6.1 8.9C5.7 8.78667 5.29333 8.66333 4.88 8.53C4.46667 8.39667 4.06 8.23667 3.66 8.05C3.26 7.86333 2.90333 7.62 2.59 7.32C2.27667 7.02 2.02333 6.64667 1.83 6.2C1.64333 5.74667 1.55 5.19 1.55 4.53C1.55 4.00333 1.65333 3.49 1.86 2.99C2.07333 2.49 2.38 2.04667 2.78 1.66C3.18 1.27333 3.67333 0.963333 4.26 0.73C4.84667 0.496666 5.52 0.38 6.28 0.38C7.13333 0.38 7.92 0.513333 8.64 0.779999C9.36 1.04667 9.97333 1.42 10.48 1.9L9.81 3.17ZM15.6673 15.16C14.774 15.16 14.0873 14.91 13.6073 14.41C13.134 13.9033 12.8973 13.2067 12.8973 12.32V6.59H11.8473C11.714 6.59 11.6007 6.54667 11.5073 6.46C11.414 6.37333 11.3673 6.24333 11.3673 6.07V5.09L13.0173 4.82L13.5373 2.02C13.5707 1.88667 13.634 1.78333 13.7273 1.71C13.8207 1.63667 13.9407 1.6 14.0873 1.6H15.3673V4.83H18.1073V6.59H15.3673V12.15C15.3673 12.47 15.444 12.72 15.5973 12.9C15.7573 13.08 15.974 13.17 16.2473 13.17C16.4007 13.17 16.5273 13.1533 16.6273 13.12C16.734 13.08 16.824 13.04 16.8973 13C16.9773 12.96 17.0473 12.9233 17.1073 12.89C17.1673 12.85 17.2273 12.83 17.2873 12.83C17.3607 12.83 17.4207 12.85 17.4673 12.89C17.514 12.9233 17.564 12.9767 17.6173 13.05L18.3573 14.25C17.9973 14.55 17.584 14.7767 17.1173 14.93C16.6507 15.0833 16.1673 15.16 15.6673 15.16ZM24.1506 4.58C24.9106 4.58 25.6006 4.70333 26.2206 4.95C26.8473 5.19667 27.3806 5.54667 27.8206 6C28.2673 6.45333 28.6106 7.00667 28.8506 7.66C29.0906 8.31333 29.2106 9.04333 29.2106 9.85C29.2106 10.6633 29.0906 11.3967 28.8506 12.05C28.6106 12.7033 28.2673 13.26 27.8206 13.72C27.3806 14.18 26.8473 14.5333 26.2206 14.78C25.6006 15.0267 24.9106 15.15 24.1506 15.15C23.384 15.15 22.6873 15.0267 22.0606 14.78C21.434 14.5333 20.8973 14.18 20.4506 13.72C20.0106 13.26 19.6673 12.7033 19.4206 12.05C19.1806 11.3967 19.0606 10.6633 19.0606 9.85C19.0606 9.04333 19.1806 8.31333 19.4206 7.66C19.6673 7.00667 20.0106 6.45333 20.4506 6C20.8973 5.54667 21.434 5.19667 22.0606 4.95C22.6873 4.70333 23.384 4.58 24.1506 4.58ZM24.1506 13.25C25.004 13.25 25.634 12.9633 26.0406 12.39C26.454 11.8167 26.6606 10.9767 26.6606 9.87C26.6606 8.76333 26.454 7.92 26.0406 7.34C25.634 6.76 25.004 6.47 24.1506 6.47C23.284 6.47 22.6406 6.76333 22.2206 7.35C21.8073 7.93 21.6006 8.77 21.6006 9.87C21.6006 10.97 21.8073 11.81 22.2206 12.39C22.6406 12.9633 23.284 13.25 24.1506 13.25ZM40.0325 4.74L35.9625 15H33.7225L29.6525 4.74H31.6925C31.8792 4.74 32.0325 4.78333 32.1525 4.87C32.2792 4.95667 32.3625 5.06667 32.4025 5.2L34.3825 10.68C34.4892 11 34.5825 11.3133 34.6625 11.62C34.7425 11.9267 34.8125 12.2333 34.8725 12.54C34.9392 12.2333 35.0125 11.9267 35.0925 11.62C35.1725 11.3133 35.2692 11 35.3825 10.68L37.4025 5.2C37.4492 5.06667 37.5325 4.95667 37.6525 4.87C37.7725 4.78333 37.9158 4.74 38.0825 4.74H40.0325ZM47.6464 8.69C47.6464 8.37 47.5997 8.07 47.5064 7.79C47.4197 7.50333 47.2864 7.25333 47.1064 7.04C46.9264 6.82667 46.6964 6.66 46.4164 6.54C46.1431 6.41333 45.8231 6.35 45.4564 6.35C44.7431 6.35 44.1797 6.55333 43.7664 6.96C43.3597 7.36667 43.0997 7.94333 42.9864 8.69H47.6464ZM42.9364 10.18C42.9764 10.7067 43.0697 11.1633 43.2164 11.55C43.3631 11.93 43.5564 12.2467 43.7964 12.5C44.0364 12.7467 44.3197 12.9333 44.6464 13.06C44.9797 13.18 45.3464 13.24 45.7464 13.24C46.1464 13.24 46.4897 13.1933 46.7764 13.1C47.0697 13.0067 47.3231 12.9033 47.5364 12.79C47.7564 12.6767 47.9464 12.5733 48.1064 12.48C48.2731 12.3867 48.4331 12.34 48.5864 12.34C48.7931 12.34 48.9464 12.4167 49.0464 12.57L49.7564 13.47C49.4831 13.79 49.1764 14.06 48.8364 14.28C48.4964 14.4933 48.1397 14.6667 47.7664 14.8C47.3997 14.9267 47.0231 15.0167 46.6364 15.07C46.2564 15.1233 45.8864 15.15 45.5264 15.15C44.8131 15.15 44.1497 15.0333 43.5364 14.8C42.9231 14.56 42.3897 14.21 41.9364 13.75C41.4831 13.2833 41.1264 12.71 40.8664 12.03C40.6064 11.3433 40.4764 10.55 40.4764 9.65C40.4764 8.95 40.5897 8.29333 40.8164 7.68C41.0431 7.06 41.3664 6.52333 41.7864 6.07C42.2131 5.61 42.7297 5.24667 43.3364 4.98C43.9497 4.71333 44.6397 4.58 45.4064 4.58C46.0531 4.58 46.6497 4.68333 47.1964 4.89C47.7431 5.09667 48.2131 5.4 48.6064 5.8C48.9997 6.19333 49.3064 6.68 49.5264 7.26C49.7531 7.83333 49.8664 8.49 49.8664 9.23C49.8664 9.60333 49.8264 9.85667 49.7464 9.99C49.6664 10.1167 49.5131 10.18 49.2864 10.18H42.9364ZM66.4678 2.75H62.1078V15H59.4178V2.75H55.0578V0.539999H66.4678V2.75ZM70.1077 4.58C70.8677 4.58 71.5577 4.70333 72.1777 4.95C72.8043 5.19667 73.3377 5.54667 73.7777 6C74.2243 6.45333 74.5677 7.00667 74.8077 7.66C75.0477 8.31333 75.1677 9.04333 75.1677 9.85C75.1677 10.6633 75.0477 11.3967 74.8077 12.05C74.5677 12.7033 74.2243 13.26 73.7777 13.72C73.3377 14.18 72.8043 14.5333 72.1777 14.78C71.5577 15.0267 70.8677 15.15 70.1077 15.15C69.341 15.15 68.6443 15.0267 68.0177 14.78C67.391 14.5333 66.8543 14.18 66.4077 13.72C65.9677 13.26 65.6243 12.7033 65.3777 12.05C65.1377 11.3967 65.0177 10.6633 65.0177 9.85C65.0177 9.04333 65.1377 8.31333 65.3777 7.66C65.6243 7.00667 65.9677 6.45333 66.4077 6C66.8543 5.54667 67.391 5.19667 68.0177 4.95C68.6443 4.70333 69.341 4.58 70.1077 4.58ZM70.1077 13.25C70.961 13.25 71.591 12.9633 71.9977 12.39C72.411 11.8167 72.6177 10.9767 72.6177 9.87C72.6177 8.76333 72.411 7.92 71.9977 7.34C71.591 6.76 70.961 6.47 70.1077 6.47C69.241 6.47 68.5977 6.76333 68.1777 7.35C67.7643 7.93 67.5577 8.77 67.5577 9.87C67.5577 10.97 67.7643 11.81 68.1777 12.39C68.5977 12.9633 69.241 13.25 70.1077 13.25ZM79.522 12.34C79.802 12.68 80.1054 12.92 80.432 13.06C80.7654 13.2 81.1254 13.27 81.512 13.27C81.8854 13.27 82.222 13.2 82.522 13.06C82.822 12.92 83.0754 12.7067 83.282 12.42C83.4954 12.1333 83.6587 11.7733 83.772 11.34C83.8854 10.9 83.942 10.3833 83.942 9.79C83.942 9.19 83.892 8.68333 83.792 8.27C83.6987 7.85 83.562 7.51 83.382 7.25C83.202 6.99 82.982 6.8 82.722 6.68C82.4687 6.56 82.1787 6.5 81.852 6.5C81.3387 6.5 80.902 6.61 80.542 6.83C80.182 7.04333 79.842 7.34667 79.522 7.74V12.34ZM79.392 6.14C79.812 5.66667 80.2887 5.28333 80.822 4.99C81.3554 4.69667 81.982 4.55 82.702 4.55C83.262 4.55 83.772 4.66667 84.232 4.9C84.6987 5.13333 85.0987 5.47333 85.432 5.92C85.772 6.36 86.032 6.90667 86.212 7.56C86.3987 8.20667 86.492 8.95 86.492 9.79C86.492 10.5567 86.3887 11.2667 86.182 11.92C85.9754 12.5733 85.6787 13.14 85.292 13.62C84.912 14.1 84.4487 14.4767 83.902 14.75C83.362 15.0167 82.7554 15.15 82.082 15.15C81.5087 15.15 81.0187 15.0633 80.612 14.89C80.2054 14.71 79.842 14.4633 79.522 14.15V18.35H77.052V4.74H78.562C78.882 4.74 79.092 4.89 79.192 5.19L79.392 6.14ZM98.3725 7.81C98.8658 7.81 99.2958 7.75 99.6625 7.63C100.029 7.50333 100.333 7.32667 100.573 7.1C100.819 6.86667 101.003 6.58667 101.123 6.26C101.243 5.92667 101.303 5.55667 101.303 5.15C101.303 4.76333 101.243 4.41333 101.123 4.1C101.003 3.78667 100.823 3.52 100.583 3.3C100.343 3.08 100.039 2.91333 99.6725 2.8C99.3058 2.68 98.8725 2.62 98.3725 2.62H96.3625V7.81H98.3725ZM98.3725 0.539999C99.3392 0.539999 100.176 0.653332 100.883 0.879999C101.589 1.10667 102.173 1.42333 102.633 1.83C103.093 2.23667 103.433 2.72333 103.653 3.29C103.879 3.85667 103.993 4.47667 103.993 5.15C103.993 5.85 103.876 6.49333 103.643 7.08C103.409 7.66 103.059 8.16 102.593 8.58C102.126 9 101.539 9.32667 100.833 9.56C100.133 9.79333 99.3125 9.91 98.3725 9.91H96.3625V15H93.6725V0.539999H98.3725ZM107.839 6.52C108.159 5.90667 108.539 5.42667 108.979 5.08C109.419 4.72667 109.939 4.55 110.539 4.55C111.012 4.55 111.392 4.65333 111.679 4.86L111.519 6.71C111.486 6.83 111.436 6.91667 111.369 6.97C111.309 7.01667 111.226 7.04 111.119 7.04C111.019 7.04 110.869 7.02333 110.669 6.99C110.476 6.95667 110.286 6.94 110.099 6.94C109.826 6.94 109.582 6.98 109.369 7.06C109.156 7.14 108.962 7.25667 108.789 7.41C108.622 7.55667 108.472 7.73667 108.339 7.95C108.212 8.16333 108.092 8.40667 107.979 8.68V15H105.509V4.74H106.959C107.212 4.74 107.389 4.78667 107.489 4.88C107.589 4.96667 107.656 5.12667 107.689 5.36L107.839 6.52ZM117.217 4.58C117.977 4.58 118.667 4.70333 119.287 4.95C119.914 5.19667 120.447 5.54667 120.887 6C121.334 6.45333 121.677 7.00667 121.917 7.66C122.157 8.31333 122.277 9.04333 122.277 9.85C122.277 10.6633 122.157 11.3967 121.917 12.05C121.677 12.7033 121.334 13.26 120.887 13.72C120.447 14.18 119.914 14.5333 119.287 14.78C118.667 15.0267 117.977 15.15 117.217 15.15C116.45 15.15 115.754 15.0267 115.127 14.78C114.5 14.5333 113.964 14.18 113.517 13.72C113.077 13.26 112.734 12.7033 112.487 12.05C112.247 11.3967 112.127 10.6633 112.127 9.85C112.127 9.04333 112.247 8.31333 112.487 7.66C112.734 7.00667 113.077 6.45333 113.517 6C113.964 5.54667 114.5 5.19667 115.127 4.95C115.754 4.70333 116.45 4.58 117.217 4.58ZM117.217 13.25C118.07 13.25 118.7 12.9633 119.107 12.39C119.52 11.8167 119.727 10.9767 119.727 9.87C119.727 8.76333 119.52 7.92 119.107 7.34C118.7 6.76 118.07 6.47 117.217 6.47C116.35 6.47 115.707 6.76333 115.287 7.35C114.874 7.93 114.667 8.77 114.667 9.87C114.667 10.97 114.874 11.81 115.287 12.39C115.707 12.9633 116.35 13.25 117.217 13.25ZM127.386 15.16C126.493 15.16 125.806 14.91 125.326 14.41C124.853 13.9033 124.616 13.2067 124.616 12.32V6.59H123.566C123.433 6.59 123.319 6.54667 123.226 6.46C123.133 6.37333 123.086 6.24333 123.086 6.07V5.09L124.736 4.82L125.256 2.02C125.289 1.88667 125.353 1.78333 125.446 1.71C125.539 1.63667 125.659 1.6 125.806 1.6H127.086V4.83H129.826V6.59H127.086V12.15C127.086 12.47 127.163 12.72 127.316 12.9C127.476 13.08 127.693 13.17 127.966 13.17C128.119 13.17 128.246 13.1533 128.346 13.12C128.453 13.08 128.543 13.04 128.616 13C128.696 12.96 128.766 12.9233 128.826 12.89C128.886 12.85 128.946 12.83 129.006 12.83C129.079 12.83 129.139 12.85 129.186 12.89C129.233 12.9233 129.283 12.9767 129.336 13.05L130.076 14.25C129.716 14.55 129.303 14.7767 128.836 14.93C128.369 15.0833 127.886 15.16 127.386 15.16ZM137.939 8.69C137.939 8.37 137.893 8.07 137.799 7.79C137.713 7.50333 137.579 7.25333 137.399 7.04C137.219 6.82667 136.989 6.66 136.709 6.54C136.436 6.41333 136.116 6.35 135.749 6.35C135.036 6.35 134.473 6.55333 134.059 6.96C133.653 7.36667 133.393 7.94333 133.279 8.69H137.939ZM133.229 10.18C133.269 10.7067 133.363 11.1633 133.509 11.55C133.656 11.93 133.849 12.2467 134.089 12.5C134.329 12.7467 134.613 12.9333 134.939 13.06C135.273 13.18 135.639 13.24 136.039 13.24C136.439 13.24 136.783 13.1933 137.069 13.1C137.363 13.0067 137.616 12.9033 137.829 12.79C138.049 12.6767 138.239 12.5733 138.399 12.48C138.566 12.3867 138.726 12.34 138.879 12.34C139.086 12.34 139.239 12.4167 139.339 12.57L140.049 13.47C139.776 13.79 139.469 14.06 139.129 14.28C138.789 14.4933 138.433 14.6667 138.059 14.8C137.693 14.9267 137.316 15.0167 136.929 15.07C136.549 15.1233 136.179 15.15 135.819 15.15C135.106 15.15 134.443 15.0333 133.829 14.8C133.216 14.56 132.683 14.21 132.229 13.75C131.776 13.2833 131.419 12.71 131.159 12.03C130.899 11.3433 130.769 10.55 130.769 9.65C130.769 8.95 130.883 8.29333 131.109 7.68C131.336 7.06 131.659 6.52333 132.079 6.07C132.506 5.61 133.023 5.24667 133.629 4.98C134.243 4.71333 134.933 4.58 135.699 4.58C136.346 4.58 136.943 4.68333 137.489 4.89C138.036 5.09667 138.506 5.4 138.899 5.8C139.293 6.19333 139.599 6.68 139.819 7.26C140.046 7.83333 140.159 8.49 140.159 9.23C140.159 9.60333 140.119 9.85667 140.039 9.99C139.959 10.1167 139.806 10.18 139.579 10.18H133.229ZM149.363 6.91C149.29 7.00333 149.216 7.07667 149.143 7.13C149.076 7.18333 148.976 7.21 148.843 7.21C148.716 7.21 148.593 7.17333 148.473 7.1C148.353 7.02 148.21 6.93333 148.043 6.84C147.876 6.74 147.676 6.65333 147.443 6.58C147.216 6.5 146.933 6.46 146.593 6.46C146.16 6.46 145.78 6.54 145.453 6.7C145.126 6.85333 144.853 7.07667 144.633 7.37C144.42 7.66333 144.26 8.02 144.153 8.44C144.046 8.85333 143.993 9.32333 143.993 9.85C143.993 10.3967 144.05 10.8833 144.163 11.31C144.283 11.7367 144.453 12.0967 144.673 12.39C144.893 12.6767 145.16 12.8967 145.473 13.05C145.786 13.1967 146.14 13.27 146.533 13.27C146.926 13.27 147.243 13.2233 147.483 13.13C147.73 13.03 147.936 12.9233 148.103 12.81C148.27 12.69 148.413 12.5833 148.533 12.49C148.66 12.39 148.8 12.34 148.953 12.34C149.153 12.34 149.303 12.4167 149.403 12.57L150.113 13.47C149.84 13.79 149.543 14.06 149.223 14.28C148.903 14.4933 148.57 14.6667 148.223 14.8C147.883 14.9267 147.53 15.0167 147.163 15.07C146.803 15.1233 146.443 15.15 146.083 15.15C145.45 15.15 144.853 15.0333 144.293 14.8C143.733 14.56 143.243 14.2133 142.823 13.76C142.403 13.3067 142.07 12.7533 141.823 12.1C141.583 11.44 141.463 10.69 141.463 9.85C141.463 9.09667 141.57 8.4 141.783 7.76C142.003 7.11333 142.323 6.55667 142.743 6.09C143.163 5.61667 143.683 5.24667 144.303 4.98C144.923 4.71333 145.636 4.58 146.443 4.58C147.21 4.58 147.88 4.70333 148.453 4.95C149.033 5.19667 149.553 5.55 150.013 6.01L149.363 6.91ZM155.081 15.16C154.188 15.16 153.501 14.91 153.021 14.41C152.548 13.9033 152.311 13.2067 152.311 12.32V6.59H151.261C151.128 6.59 151.015 6.54667 150.921 6.46C150.828 6.37333 150.781 6.24333 150.781 6.07V5.09L152.431 4.82L152.951 2.02C152.985 1.88667 153.048 1.78333 153.141 1.71C153.235 1.63667 153.355 1.6 153.501 1.6H154.781V4.83H157.521V6.59H154.781V12.15C154.781 12.47 154.858 12.72 155.011 12.9C155.171 13.08 155.388 13.17 155.661 13.17C155.815 13.17 155.941 13.1533 156.041 13.12C156.148 13.08 156.238 13.04 156.311 13C156.391 12.96 156.461 12.9233 156.521 12.89C156.581 12.85 156.641 12.83 156.701 12.83C156.775 12.83 156.835 12.85 156.881 12.89C156.928 12.9233 156.978 12.9767 157.031 13.05L157.771 14.25C157.411 14.55 156.998 14.7767 156.531 14.93C156.065 15.0833 155.581 15.16 155.081 15.16ZM163.565 4.58C164.325 4.58 165.015 4.70333 165.635 4.95C166.261 5.19667 166.795 5.54667 167.235 6C167.681 6.45333 168.025 7.00667 168.265 7.66C168.505 8.31333 168.625 9.04333 168.625 9.85C168.625 10.6633 168.505 11.3967 168.265 12.05C168.025 12.7033 167.681 13.26 167.235 13.72C166.795 14.18 166.261 14.5333 165.635 14.78C165.015 15.0267 164.325 15.15 163.565 15.15C162.798 15.15 162.101 15.0267 161.475 14.78C160.848 14.5333 160.311 14.18 159.865 13.72C159.425 13.26 159.081 12.7033 158.835 12.05C158.595 11.3967 158.475 10.6633 158.475 9.85C158.475 9.04333 158.595 8.31333 158.835 7.66C159.081 7.00667 159.425 6.45333 159.865 6C160.311 5.54667 160.848 5.19667 161.475 4.95C162.101 4.70333 162.798 4.58 163.565 4.58ZM163.565 13.25C164.418 13.25 165.048 12.9633 165.455 12.39C165.868 11.8167 166.075 10.9767 166.075 9.87C166.075 8.76333 165.868 7.92 165.455 7.34C165.048 6.76 164.418 6.47 163.565 6.47C162.698 6.47 162.055 6.76333 161.635 7.35C161.221 7.93 161.015 8.77 161.015 9.87C161.015 10.97 161.221 11.81 161.635 12.39C162.055 12.9633 162.698 13.25 163.565 13.25ZM172.839 6.52C173.159 5.90667 173.539 5.42667 173.979 5.08C174.419 4.72667 174.939 4.55 175.539 4.55C176.012 4.55 176.392 4.65333 176.679 4.86L176.519 6.71C176.486 6.83 176.436 6.91667 176.369 6.97C176.309 7.01667 176.226 7.04 176.119 7.04C176.019 7.04 175.869 7.02333 175.669 6.99C175.476 6.95667 175.286 6.94 175.099 6.94C174.826 6.94 174.582 6.98 174.369 7.06C174.156 7.14 173.962 7.25667 173.789 7.41C173.622 7.55667 173.472 7.73667 173.339 7.95C173.212 8.16333 173.092 8.40667 172.979 8.68V15H170.509V4.74H171.959C172.212 4.74 172.389 4.78667 172.489 4.88C172.589 4.96667 172.656 5.12667 172.689 5.36L172.839 6.52ZM188.204 12.9C188.704 12.9 189.124 12.84 189.464 12.72C189.804 12.6 190.074 12.44 190.274 12.24C190.48 12.04 190.627 11.8067 190.714 11.54C190.807 11.2733 190.854 10.99 190.854 10.69C190.854 10.3767 190.804 10.0967 190.704 9.85C190.604 9.59667 190.447 9.38333 190.234 9.21C190.02 9.03 189.744 8.89333 189.404 8.8C189.07 8.70667 188.667 8.66 188.194 8.66H185.484V12.9H188.204ZM185.484 2.62V6.8H187.624C188.544 6.8 189.237 6.63333 189.704 6.3C190.177 5.96667 190.414 5.43667 190.414 4.71C190.414 3.95667 190.2 3.42 189.774 3.1C189.347 2.78 188.68 2.62 187.774 2.62H185.484ZM187.774 0.539999C188.72 0.539999 189.53 0.629999 190.204 0.81C190.877 0.989999 191.427 1.24667 191.854 1.58C192.287 1.91333 192.604 2.31667 192.804 2.79C193.004 3.26333 193.104 3.79667 193.104 4.39C193.104 4.73 193.054 5.05667 192.954 5.37C192.854 5.67667 192.697 5.96667 192.484 6.24C192.277 6.50667 192.01 6.75 191.684 6.97C191.364 7.19 190.98 7.37667 190.534 7.53C192.52 7.97667 193.514 9.05 193.514 10.75C193.514 11.3633 193.397 11.93 193.164 12.45C192.93 12.97 192.59 13.42 192.144 13.8C191.697 14.1733 191.147 14.4667 190.494 14.68C189.84 14.8933 189.094 15 188.254 15H182.794V0.539999H187.774ZM197.892 0.139999V15H195.422V0.139999H197.892ZM204.893 4.58C205.653 4.58 206.343 4.70333 206.963 4.95C207.589 5.19667 208.123 5.54667 208.563 6C209.009 6.45333 209.353 7.00667 209.593 7.66C209.833 8.31333 209.953 9.04333 209.953 9.85C209.953 10.6633 209.833 11.3967 209.593 12.05C209.353 12.7033 209.009 13.26 208.563 13.72C208.123 14.18 207.589 14.5333 206.963 14.78C206.343 15.0267 205.653 15.15 204.893 15.15C204.126 15.15 203.429 15.0267 202.803 14.78C202.176 14.5333 201.639 14.18 201.193 13.72C200.753 13.26 200.409 12.7033 200.163 12.05C199.923 11.3967 199.803 10.6633 199.803 9.85C199.803 9.04333 199.923 8.31333 200.163 7.66C200.409 7.00667 200.753 6.45333 201.193 6C201.639 5.54667 202.176 5.19667 202.803 4.95C203.429 4.70333 204.126 4.58 204.893 4.58ZM204.893 13.25C205.746 13.25 206.376 12.9633 206.783 12.39C207.196 11.8167 207.403 10.9767 207.403 9.87C207.403 8.76333 207.196 7.92 206.783 7.34C206.376 6.76 205.746 6.47 204.893 6.47C204.026 6.47 203.383 6.76333 202.963 7.35C202.549 7.93 202.343 8.77 202.343 9.87C202.343 10.97 202.549 11.81 202.963 12.39C203.383 12.9633 204.026 13.25 204.893 13.25ZM215.509 9.62C215.816 9.62 216.082 9.58 216.309 9.5C216.536 9.41333 216.722 9.29667 216.869 9.15C217.022 9.00333 217.136 8.82667 217.209 8.62C217.289 8.41333 217.329 8.18667 217.329 7.94C217.329 7.43333 217.176 7.03333 216.869 6.74C216.569 6.44 216.116 6.29 215.509 6.29C214.902 6.29 214.446 6.44 214.139 6.74C213.839 7.03333 213.689 7.43333 213.689 7.94C213.689 8.18 213.726 8.40333 213.799 8.61C213.879 8.81667 213.992 8.99667 214.139 9.15C214.292 9.29667 214.482 9.41333 214.709 9.5C214.942 9.58 215.209 9.62 215.509 9.62ZM218.299 15.46C218.299 15.26 218.239 15.0967 218.119 14.97C217.999 14.8433 217.836 14.7467 217.629 14.68C217.422 14.6067 217.179 14.5533 216.899 14.52C216.626 14.4867 216.332 14.4633 216.019 14.45C215.712 14.43 215.392 14.4133 215.059 14.4C214.732 14.3867 214.412 14.36 214.099 14.32C213.826 14.4733 213.602 14.6533 213.429 14.86C213.262 15.0667 213.179 15.3067 213.179 15.58C213.179 15.76 213.222 15.9267 213.309 16.08C213.402 16.24 213.546 16.3767 213.739 16.49C213.939 16.6033 214.196 16.69 214.509 16.75C214.822 16.8167 215.206 16.85 215.659 16.85C216.119 16.85 216.516 16.8133 216.849 16.74C217.182 16.6733 217.456 16.5767 217.669 16.45C217.889 16.33 218.049 16.1833 218.149 16.01C218.249 15.8433 218.299 15.66 218.299 15.46ZM220.759 5.09V6.01C220.759 6.30333 220.582 6.48333 220.229 6.55L219.309 6.72C219.449 7.07333 219.519 7.46 219.519 7.88C219.519 8.38667 219.416 8.84667 219.209 9.26C219.009 9.66667 218.729 10.0133 218.369 10.3C218.009 10.5867 217.582 10.81 217.089 10.97C216.602 11.1233 216.076 11.2 215.509 11.2C215.309 11.2 215.116 11.19 214.929 11.17C214.742 11.15 214.559 11.1233 214.379 11.09C214.059 11.2833 213.899 11.5 213.899 11.74C213.899 11.9467 213.992 12.1 214.179 12.2C214.372 12.2933 214.626 12.36 214.939 12.4C215.252 12.44 215.609 12.4667 216.009 12.48C216.409 12.4867 216.819 12.5067 217.239 12.54C217.659 12.5733 218.069 12.6333 218.469 12.72C218.869 12.8 219.226 12.93 219.539 13.11C219.852 13.29 220.102 13.5367 220.289 13.85C220.482 14.1567 220.579 14.5533 220.579 15.04C220.579 15.4933 220.466 15.9333 220.239 16.36C220.019 16.7867 219.696 17.1667 219.269 17.5C218.849 17.8333 218.329 18.1 217.709 18.3C217.096 18.5067 216.396 18.61 215.609 18.61C214.836 18.61 214.162 18.5333 213.589 18.38C213.016 18.2333 212.539 18.0333 212.159 17.78C211.779 17.5333 211.496 17.2467 211.309 16.92C211.122 16.5933 211.029 16.2533 211.029 15.9C211.029 15.42 211.172 15.02 211.459 14.7C211.752 14.3733 212.152 14.1133 212.659 13.92C212.386 13.78 212.169 13.5933 212.009 13.36C211.849 13.1267 211.769 12.82 211.769 12.44C211.769 12.2867 211.796 12.13 211.849 11.97C211.909 11.8033 211.992 11.64 212.099 11.48C212.212 11.32 212.352 11.17 212.519 11.03C212.686 10.8833 212.882 10.7533 213.109 10.64C212.589 10.36 212.179 9.98667 211.879 9.52C211.586 9.05333 211.439 8.50667 211.439 7.88C211.439 7.37333 211.539 6.91667 211.739 6.51C211.946 6.09667 212.229 5.74667 212.589 5.46C212.956 5.16667 213.386 4.94333 213.879 4.79C214.379 4.63667 214.922 4.56 215.509 4.56C215.949 4.56 216.362 4.60667 216.749 4.7C217.136 4.78667 217.489 4.91667 217.809 5.09H220.759Z" fill="#4657A1"/>
</svg>
