<svg width="40" height="40" viewBox="0 0 40 40" fill="none" xmlns="http://www.w3.org/2000/svg">
<path d="M32.75 15.0667L24.6833 14.3667L21.5333 6.95C20.9667 5.6 19.0333 5.6 18.4667 6.95L15.3167 14.3833L7.26667 15.0667C5.8 15.1833 5.2 17.0167 6.31667 17.9833L12.4333 23.2833L10.6 31.15C10.2667 32.5833 11.8167 33.7167 13.0833 32.95L20 28.7833L26.9167 32.9667C28.1833 33.7333 29.7333 32.6 29.4 31.1667L27.5667 23.2833L33.6833 17.9833C34.8 17.0167 34.2167 15.1833 32.75 15.0667ZM20 25.6667V10.1667L22.85 16.9L30.15 17.5333L24.6167 22.3333L26.2833 29.4667L20 25.6667Z" fill="#FF6227"/>
</svg>
