<svg width="21" height="20" viewBox="0 0 21 20" fill="none" xmlns="http://www.w3.org/2000/svg">
<g clip-path="url(#clip0_295_7323)">
<path d="M18.4028 0.468822H2.15277C1.78407 0.46507 1.42894 0.607735 1.1653 0.865514C0.901663 1.12329 0.751054 1.47513 0.746521 1.84382V18.1594C0.751874 18.5276 0.902843 18.8786 1.16639 19.1357C1.42994 19.3928 1.7846 19.5351 2.15277 19.5313H18.4028C18.7715 19.5342 19.1264 19.3911 19.3899 19.1332C19.6534 18.8752 19.8041 18.5235 19.809 18.1548V1.83913C19.8024 1.47152 19.651 1.12136 19.3877 0.864769C19.1244 0.608173 18.7704 0.465881 18.4028 0.468822Z" fill="#0076B2"/>
<path d="M3.56838 7.61401H6.39807V16.7187H3.56838V7.61401ZM4.98401 3.08276C5.30856 3.08276 5.62582 3.17902 5.89565 3.35937C6.16549 3.53971 6.37577 3.79603 6.4999 4.09591C6.62403 4.39579 6.65643 4.72574 6.59299 5.04403C6.52956 5.36233 6.37315 5.65466 6.14355 5.88404C5.91395 6.11342 5.62147 6.26955 5.30312 6.33268C4.98477 6.39581 4.65484 6.36309 4.35509 6.23868C4.05533 6.11426 3.79921 5.90374 3.61912 5.63373C3.43903 5.36373 3.34308 5.04638 3.34338 4.72183C3.3438 4.28698 3.51683 3.87008 3.82446 3.56274C4.1321 3.2554 4.54916 3.08276 4.98401 3.08276ZM8.17307 7.61401H10.8856V8.86401H10.9231C11.3012 8.14839 12.2231 7.3937 13.5996 7.3937C16.4653 7.38745 16.9965 9.27339 16.9965 11.7187V16.7187H14.1668V12.289C14.1668 11.2343 14.1481 9.87651 12.6965 9.87651C11.2449 9.87651 10.9981 11.0265 10.9981 12.2203V16.7187H8.17307V7.61401Z" fill="white"/>
</g>
<defs>
<clipPath id="clip0_295_7323">
<rect width="20" height="20" fill="white" transform="translate(0.277771)"/>
</clipPath>
</defs>
</svg>
