<svg width="21" height="20" viewBox="0 0 21 20" fill="none" xmlns="http://www.w3.org/2000/svg">
<g clip-path="url(#clip0_295_7315)">
<path d="M20.7222 10C20.7222 4.47719 16.245 0 10.7222 0C5.19942 0 0.722229 4.47719 0.722229 10C0.722229 14.9912 4.3791 19.1284 9.15973 19.8785V12.8906H6.62067V10H9.15973V7.79687C9.15973 5.29062 10.6527 3.90625 12.9369 3.90625C14.031 3.90625 15.1754 4.10156 15.1754 4.10156V6.5625H13.9144C12.6722 6.5625 12.2847 7.33336 12.2847 8.12422V10H15.0582L14.6148 12.8906H12.2847V19.8785C17.0654 19.1284 20.7222 14.9913 20.7222 10Z" fill="#1877F2"/>
<path d="M14.6148 12.8906L15.0582 10H12.2847V8.12422C12.2847 7.33328 12.6722 6.5625 13.9144 6.5625H15.1754V4.10156C15.1754 4.10156 14.031 3.90625 12.9368 3.90625C10.6527 3.90625 9.15973 5.29063 9.15973 7.79688V10H6.62067V12.8906H9.15973V19.8785C9.67662 19.9595 10.199 20.0001 10.7222 20C11.2454 20.0002 11.7678 19.9595 12.2847 19.8785V12.8906H14.6148Z" fill="white"/>
</g>
<defs>
<clipPath id="clip0_295_7315">
<rect width="20" height="20" fill="white" transform="translate(0.722229)"/>
</clipPath>
</defs>
</svg>
