<svg width="22" height="20" viewBox="0 0 22 20" fill="none" xmlns="http://www.w3.org/2000/svg">
<g clip-path="url(#clip0_295_7318)">
<path d="M16.4601 0H5.53994C2.87919 0 0.722229 2.09867 0.722229 4.6875V15.3125C0.722229 17.9013 2.87919 20 5.53994 20H16.4601C19.1208 20 21.2778 17.9013 21.2778 15.3125V4.6875C21.2778 2.09867 19.1208 0 16.4601 0Z" fill="url(#paint0_radial_295_7318)"/>
<path d="M16.4601 0H5.53994C2.87919 0 0.722229 2.09867 0.722229 4.6875V15.3125C0.722229 17.9013 2.87919 20 5.53994 20H16.4601C19.1208 20 21.2778 17.9013 21.2778 15.3125V4.6875C21.2778 2.09867 19.1208 0 16.4601 0Z" fill="url(#paint1_radial_295_7318)"/>
<path d="M11.0008 2.1875C8.8201 2.1875 8.54637 2.1968 7.68995 2.23469C6.83512 2.27281 6.25162 2.40445 5.7411 2.59766C5.21292 2.79719 4.76496 3.06414 4.31868 3.49852C3.87199 3.93281 3.59763 4.36867 3.39191 4.88234C3.19278 5.37922 3.05732 5.94719 3.01886 6.77852C2.98056 7.61188 2.97052 7.87828 2.97052 10.0001C2.97052 12.1219 2.98016 12.3873 3.01902 13.2206C3.05836 14.0523 3.19366 14.6201 3.39207 15.1168C3.5973 15.6307 3.87167 16.0666 4.31811 16.5008C4.76431 16.9354 5.21228 17.203 5.74006 17.4025C6.25098 17.5957 6.83456 17.7273 7.68922 17.7655C8.54573 17.8034 8.81922 17.8127 10.9998 17.8127C13.1807 17.8127 13.4535 17.8034 14.31 17.7655C15.1648 17.7273 15.7489 17.5957 16.2598 17.4025C16.7878 17.203 17.2351 16.9354 17.6812 16.5008C18.1279 16.0666 18.4022 15.6307 18.608 15.117C18.8054 14.6201 18.9409 14.0522 18.981 13.2208C19.0195 12.3875 19.0295 12.1219 19.0295 10.0001C19.0295 7.87828 19.0195 7.61203 18.981 6.77867C18.9409 5.94695 18.8054 5.3793 18.608 4.88258C18.4022 4.36867 18.1279 3.93281 17.6812 3.49852C17.2346 3.06398 16.7879 2.79703 16.2594 2.59773C15.7475 2.40445 15.1637 2.27273 14.3088 2.23469C13.4523 2.1968 13.1796 2.1875 10.9983 2.1875H11.0008ZM10.2804 3.59539C10.4943 3.59508 10.7328 3.59539 11.0008 3.59539C13.1447 3.59539 13.3988 3.60289 14.2454 3.64031C15.0283 3.67516 15.4532 3.80242 15.7362 3.90938C16.111 4.05094 16.3781 4.22023 16.659 4.49375C16.94 4.76719 17.1139 5.02758 17.2598 5.39219C17.3698 5.66719 17.5007 6.08063 17.5364 6.84234C17.5748 7.66594 17.5832 7.91328 17.5832 9.99828C17.5832 12.0833 17.5748 12.3307 17.5364 13.1542C17.5006 13.9159 17.3698 14.3294 17.2598 14.6045C17.1143 14.9691 16.94 15.2287 16.659 15.502C16.378 15.7754 16.1111 15.9446 15.7362 16.0863C15.4535 16.1937 15.0283 16.3206 14.2454 16.3555C13.3989 16.3929 13.1447 16.401 11.0008 16.401C8.85672 16.401 8.60258 16.3929 7.75619 16.3555C6.97331 16.3203 6.54839 16.193 6.26511 16.0861C5.89045 15.9445 5.62275 15.7752 5.34172 15.5018C5.06068 15.2284 4.88676 14.9686 4.74087 14.6038C4.63094 14.3287 4.49998 13.9153 4.46433 13.1536C4.42587 12.33 4.41816 12.0827 4.41816 9.99633C4.41816 7.91008 4.42587 7.66398 4.46433 6.84039C4.50014 6.07867 4.63094 5.66523 4.74087 5.38984C4.88644 5.02523 5.06068 4.76484 5.3418 4.49141C5.62283 4.21797 5.89045 4.04867 6.26519 3.9068C6.54823 3.79938 6.97331 3.67242 7.75619 3.63742C8.49691 3.60484 8.78397 3.59508 10.2804 3.59344V3.59539ZM15.2869 4.89258C14.755 4.89258 14.3234 5.31211 14.3234 5.82977C14.3234 6.34734 14.755 6.76727 15.2869 6.76727C15.8189 6.76727 16.2505 6.34734 16.2505 5.82977C16.2505 5.31219 15.8189 4.89227 15.2869 4.89227V4.89258ZM11.0008 5.98797C8.72359 5.98797 6.87728 7.78438 6.87728 10.0001C6.87728 12.2158 8.72359 14.0113 11.0008 14.0113C13.278 14.0113 15.1237 12.2158 15.1237 10.0001C15.1237 7.78445 13.2778 5.98797 11.0006 5.98797H11.0008ZM11.0008 7.39586C12.4789 7.39586 13.6773 8.56172 13.6773 10.0001C13.6773 11.4383 12.4789 12.6043 11.0008 12.6043C9.52252 12.6043 8.32428 11.4383 8.32428 10.0001C8.32428 8.56172 9.52252 7.39586 11.0008 7.39586Z" fill="white"/>
</g>
<defs>
<radialGradient id="paint0_radial_295_7318" cx="0" cy="0" r="1" gradientUnits="userSpaceOnUse" gradientTransform="translate(6.1823 21.5404) rotate(-90) scale(19.8215 18.9476)">
<stop stop-color="#FFDD55"/>
<stop offset="0.1" stop-color="#FFDD55"/>
<stop offset="0.5" stop-color="#FF543E"/>
<stop offset="1" stop-color="#C837AB"/>
</radialGradient>
<radialGradient id="paint1_radial_295_7318" cx="0" cy="0" r="1" gradientUnits="userSpaceOnUse" gradientTransform="translate(-2.72091 1.4407) rotate(78.375) scale(8.86992 37.4964)">
<stop stop-color="#3771C8"/>
<stop offset="0.128" stop-color="#3771C8"/>
<stop offset="1" stop-color="#6600FF" stop-opacity="0"/>
</radialGradient>
<clipPath id="clip0_295_7318">
<rect width="20.5556" height="20" fill="white" transform="translate(0.722229)"/>
</clipPath>
</defs>
</svg>
