<svg width="20" height="21" viewBox="0 0 20 21" fill="none" xmlns="http://www.w3.org/2000/svg">
<path d="M4.16667 9.66496C3.70551 9.66496 3.33167 10.0388 3.33167 10.5C3.33167 10.9611 3.70551 11.335 4.16667 11.335V9.66496ZM15.8333 10.5L16.4238 11.0904C16.7499 10.7643 16.7499 10.2356 16.4238 9.90952L15.8333 10.5ZM10.5904 4.07619C10.2643 3.7501 9.73565 3.7501 9.40956 4.07619C9.08348 4.40228 9.08348 4.93097 9.40956 5.25706L10.5904 4.07619ZM9.40956 15.7429C9.08348 16.0689 9.08348 16.5976 9.40956 16.9237C9.73565 17.2498 10.2643 17.2498 10.5904 16.9237L9.40956 15.7429ZM4.16667 11.335H15.8333V9.66496H4.16667V11.335ZM9.40956 5.25706L15.2429 11.0904L16.4238 9.90952L10.5904 4.07619L9.40956 5.25706ZM15.2429 9.90952L9.40956 15.7429L10.5904 16.9237L16.4238 11.0904L15.2429 9.90952Z" fill="#555EC6"/>
</svg>
