<svg width="20" height="21" viewBox="0 0 20 21" fill="none" xmlns="http://www.w3.org/2000/svg">
<path d="M15.8333 11.335C16.2944 11.335 16.6683 10.9611 16.6683 10.5C16.6683 10.0388 16.2944 9.66496 15.8333 9.66496V11.335ZM4.16663 10.5L3.57619 9.90952C3.2501 10.2356 3.2501 10.7643 3.57619 11.0904L4.16663 10.5ZM9.40952 16.9237C9.73561 17.2498 10.2643 17.2498 10.5904 16.9237C10.9165 16.5976 10.9165 16.0689 10.5904 15.7429L9.40952 16.9237ZM10.5904 5.25706C10.9165 4.93097 10.9165 4.40228 10.5904 4.07619C10.2643 3.7501 9.73561 3.7501 9.40952 4.07619L10.5904 5.25706ZM15.8333 9.66496H4.16663V11.335H15.8333V9.66496ZM10.5904 15.7429L4.75706 9.90952L3.57619 11.0904L9.40952 16.9237L10.5904 15.7429ZM4.75706 11.0904L10.5904 5.25706L9.40952 4.07619L3.57619 9.90952L4.75706 11.0904Z" fill="#666666"/>
</svg>
