<svg width="32" height="33" viewBox="0 0 32 33" fill="none" xmlns="http://www.w3.org/2000/svg">
<path d="M25 11.9017L24.1 11.6017C24.1 11.4017 24.2 11.2017 24.2 11.0017C24.9 7.70174 24.4 5.00174 22.9 4.10174C21.4 3.30174 19 4.10174 16.6 6.20174C16.4 6.40174 16.1 6.60174 15.9 6.80174C15.7 6.70174 15.6 6.50174 15.4 6.40174C13 4.20174 10.5 3.30174 9 4.20174C7.5 5.00174 7.1 7.60174 7.7 10.7017C7.8 11.0017 7.8 11.3017 7.9 11.6017C7.5 11.7017 7.2 11.8017 6.9 11.9017C3.9 12.9017 2 14.6017 2 16.2017C2 17.9017 4 19.7017 7.1 20.7017C7.3 20.8017 7.6 20.9017 7.9 20.9017C7.8 21.2017 7.7 21.6017 7.7 21.9017C7.1 25.0017 7.6 27.4017 9 28.3017C10.5 29.2017 13 28.3017 15.5 26.1017C15.7 25.9017 15.9 25.7017 16.1 25.6017C16.3 25.8017 16.6 26.1017 16.9 26.3017C19.3 28.4017 21.6 29.2017 23.1 28.3017C24.6 27.4017 25.1 24.8017 24.5 21.6017C24.5 21.4017 24.4 21.1017 24.3 20.8017C24.5 20.7017 24.7 20.7017 24.8 20.6017C28 19.5017 30.1 17.8017 30.1 16.1017C30 14.6017 28 13.0017 25 11.9017ZM17.5 7.20174C19.6 5.40174 21.5 4.70174 22.4 5.20174C23.3 5.70174 23.7 7.90174 23.1 10.8017C23.1 11.0017 23 11.2017 23 11.4017C21.8 11.1017 20.5 10.9017 19.3 10.8017C18.6 9.80174 17.8 8.80174 16.9 7.80174L17.5 7.20174ZM10.3 17.7017C10.6 18.2017 10.8 18.7017 11.1 19.2017C11.4 19.7017 11.7 20.2017 12 20.6017C11.1 20.5017 10.3 20.4017 9.4 20.2017C9.6 19.4017 9.9 18.6017 10.3 17.7017ZM10.3 14.9017C9.9 14.1017 9.7 13.3017 9.4 12.5017C10.2 12.3017 11.1 12.2017 11.9 12.1017C11.6 12.6017 11.3 13.0017 11 13.5017C10.8 13.9017 10.5 14.4017 10.3 14.9017ZM10.9 16.3017C11.3 15.5017 11.7 14.8017 12.1 14.0017C12.5 13.3017 13 12.5017 13.5 11.8017C14.3 11.7017 15.2 11.7017 16.1 11.7017C17 11.7017 17.8 11.7017 18.7 11.8017C19.2 12.5017 19.6 13.2017 20 14.0017C20.4 14.7017 20.8 15.5017 21.2 16.3017C20.8 17.1017 20.4 17.8017 20 18.6017C19.6 19.3017 19.1 20.1017 18.7 20.8017C17.9 20.9017 17 20.9017 16.1 20.9017C15.2 20.9017 14.4 20.9017 13.6 20.8017C13.1 20.1017 12.7 19.4017 12.2 18.6017C11.7 17.8017 11.3 17.1017 10.9 16.3017ZM20.9 19.2017C21.2 18.7017 21.5 18.2017 21.7 17.7017C22.1 18.5017 22.4 19.3017 22.6 20.2017C21.7 20.4017 20.9 20.5017 20 20.6017C20.4 20.1017 20.7 19.6017 20.9 19.2017ZM21.7 14.9017C21.4 14.4017 21.2 13.9017 20.9 13.4017C20.6 12.9017 20.3 12.5017 20.1 12.0017C21 12.1017 21.8 12.3017 22.7 12.4017C22.4 13.3017 22.1 14.1017 21.7 14.9017ZM16 8.60174C16.6 9.20174 17.1 9.90174 17.6 10.6017C16.5 10.5017 15.4 10.5017 14.3 10.6017C14.9 9.90174 15.5 9.20174 16 8.60174ZM9.6 5.20174C10.5 4.70174 12.6 5.40174 14.8 7.40174L15.2 7.80174C14.3 8.70174 13.5 9.70174 12.8 10.8017C11.5 10.9017 10.3 11.1017 9.1 11.4017C9 11.1017 9 10.8017 8.9 10.5017C8.3 7.80173 8.7 5.70174 9.6 5.20174ZM8.2 19.9017C8 19.8017 7.7 19.8017 7.5 19.7017C6.1 19.2017 5 18.6017 4.2 18.0017C3.5 17.4017 3.2 16.8017 3.2 16.3017C3.2 15.3017 4.7 14.0017 7.3 13.1017C7.6 13.0017 7.9 12.9017 8.3 12.8017C8.6 14.0017 9 15.2017 9.6 16.3017C9 17.5017 8.6 18.7017 8.2 19.9017ZM14.7 25.4017C13.6 26.4017 12.5 27.0017 11.6 27.4017C10.7 27.7017 10.1 27.7017 9.6 27.5017C8.7 27.0017 8.3 25.0017 8.8 22.4017C8.9 22.0017 9 21.7017 9 21.3017C10.2 21.6017 11.5 21.8017 12.8 21.8017C13.5 22.8017 14.3 23.8017 15.2 24.8017C15 25.0017 14.9 25.2017 14.7 25.4017ZM16 24.0017C15.4 23.4017 14.9 22.7017 14.3 22.0017H17.6C17.2 22.7017 16.6 23.4017 16 24.0017ZM23.3 25.7017C23.1 26.6017 22.8 27.2017 22.4 27.4017C21.5 27.9017 19.6 27.2017 17.6 25.5017C17.4 25.3017 17.1 25.1017 16.9 24.9017C17.7 24.0017 18.5 23.0017 19.2 21.9017C20.5 21.8017 21.7 21.6017 23 21.3017C23.1 21.5017 23.1 21.8017 23.2 22.0017C23.5 23.4017 23.5 24.7017 23.3 25.7017ZM24.3 19.7017C24.1 19.7017 24 19.8017 23.8 19.8017C23.4 18.6017 22.9 17.4017 22.4 16.2017C22.9 15.1017 23.4 13.9017 23.8 12.7017C24.1 12.8017 24.4 12.9017 24.6 13.0017C27.2 13.9017 28.8 15.2017 28.8 16.2017C28.8 17.4017 27.1 18.8017 24.3 19.7017Z" fill="black"/>
<path d="M16 18.8017C16.5 18.8017 17 18.7017 17.4 18.4017C17.8 18.1017 18.1 17.7017 18.3 17.3017C18.5 16.8017 18.5 16.3017 18.4 15.8017C18.3 15.3017 18.1 14.9017 17.7 14.5017C17.4 14.1017 16.9 13.9017 16.4 13.8017C15.9 13.7017 15.4 13.8017 14.9 13.9017C14.4 14.1017 14 14.4017 13.8 14.8017C13.5 15.2017 13.4 15.7017 13.4 16.2017C13.4 16.5017 13.5 16.9017 13.6 17.2017C13.7 17.5017 13.9 17.8017 14.1 18.0017C14.3 18.2017 14.6 18.4017 14.9 18.5017C15.3 18.7017 15.7 18.8017 16 18.8017Z" fill="black"/>
</svg>
