<svg width="17" height="19" viewBox="0 0 17 19" fill="none" xmlns="http://www.w3.org/2000/svg">
<path d="M3.28276 11.3986C4.41243 11.3986 5.32821 10.5032 5.32821 9.39862C5.32821 8.29405 4.41243 7.39862 3.28276 7.39862C2.15309 7.39862 1.2373 8.29405 1.2373 9.39862C1.2373 10.5032 2.15309 11.3986 3.28276 11.3986Z" stroke="#666666" stroke-width="1.5" stroke-linecap="round" stroke-linejoin="round"/>
<path d="M14.1919 5.39862C15.3216 5.39862 16.2374 4.50319 16.2374 3.39862C16.2374 2.29405 15.3216 1.39862 14.1919 1.39862C13.0623 1.39862 12.1465 2.29405 12.1465 3.39862C12.1465 4.50319 13.0623 5.39862 14.1919 5.39862Z" stroke="#666666" stroke-width="1.5" stroke-linecap="round" stroke-linejoin="round"/>
<path d="M14.1919 17.3986C15.3216 17.3986 16.2374 16.5032 16.2374 15.3986C16.2374 14.2941 15.3216 13.3986 14.1919 13.3986C13.0623 13.3986 12.1465 14.2941 12.1465 15.3986C12.1465 16.5032 13.0623 17.3986 14.1919 17.3986Z" stroke="#666666" stroke-width="1.5" stroke-linecap="round" stroke-linejoin="round"/>
<path d="M5.06494 10.379L12.409 14.4182M12.409 4.37903L5.06494 8.41819" stroke="#666666" stroke-width="1.5" stroke-linecap="round" stroke-linejoin="round"/>
</svg>
