<svg width="25" height="25" viewBox="0 0 25 25" fill="none" xmlns="http://www.w3.org/2000/svg">
<path fill-rule="evenodd" clip-rule="evenodd" d="M9.50791 2.44968C10.9519 1.95568 11.8479 1.64868 12.7849 1.64868C13.7229 1.64868 14.6179 1.95568 16.0619 2.44968L16.7889 2.69968C18.2699 3.20568 19.4139 3.59768 20.2319 3.92968C20.6439 4.09668 20.9989 4.25968 21.2839 4.42468C21.5589 4.58468 21.8339 4.78368 22.0209 5.05068C22.2059 5.31368 22.3019 5.63768 22.3619 5.95068C22.4249 6.27468 22.4619 6.66368 22.4869 7.11068C22.5349 7.99668 22.5349 9.21268 22.5349 10.7887V12.3897C22.5349 18.4907 17.9269 21.4157 15.1869 22.6137L15.1599 22.6247C14.8199 22.7737 14.4999 22.9127 14.1329 23.0067C13.7459 23.1067 13.3339 23.1487 12.7849 23.1487C12.2349 23.1487 11.8249 23.1067 11.4369 23.0067C11.0699 22.9127 10.7499 22.7737 10.4099 22.6247L10.3829 22.6137C7.64291 21.4157 3.03491 18.4907 3.03491 12.3887V10.7887C3.03491 9.21268 3.03491 7.99668 3.08291 7.10968C3.10791 6.66368 3.14491 6.27468 3.20791 5.94968C3.26791 5.63768 3.36391 5.31368 3.54791 5.04968C3.73591 4.78368 4.01091 4.58468 4.28591 4.42468C4.57091 4.25968 4.92591 4.09668 5.33791 3.92968C6.15591 3.59768 7.29991 3.20568 8.78091 2.69968L9.50791 2.44968ZM12.0349 3.23668C11.5369 3.34468 10.8999 3.55868 9.86491 3.91268L9.29291 4.10868C7.77991 4.62668 6.67691 5.00468 5.90291 5.31868C5.60623 5.43393 5.31758 5.5689 5.03891 5.72268C4.96616 5.76368 4.89662 5.81014 4.83091 5.86168C4.81101 5.87654 4.79259 5.89328 4.77591 5.91168C4.76283 5.93523 4.75212 5.96002 4.74391 5.98568C4.72391 6.04168 4.70191 6.12168 4.68091 6.23368C4.62692 6.55052 4.59351 6.87052 4.58091 7.19168C4.53991 7.95168 4.53491 8.98168 4.53491 10.3577L12.0349 7.85768V3.23668ZM13.5349 3.23668V7.85768L21.0349 10.3577C21.0349 8.98168 21.0299 7.95068 20.9889 7.19168C20.9764 6.87052 20.943 6.55051 20.8889 6.23368C20.874 6.14958 20.853 6.06669 20.8259 5.98568C20.8177 5.96002 20.807 5.93523 20.7939 5.91168C20.7772 5.89328 20.7588 5.87654 20.7389 5.86168C20.6733 5.80978 20.6037 5.76297 20.5309 5.72168C20.2522 5.56858 19.9635 5.43428 19.6669 5.31968C18.8929 5.00468 17.7899 4.62668 16.2769 4.10968L15.7039 3.91268C14.6699 3.55868 14.0329 3.34468 13.5349 3.23668ZM12.0349 9.43968L4.53491 11.9397V12.3897C4.53491 17.5657 8.40491 20.1127 10.9839 21.2387C11.3549 21.4007 11.5699 21.4927 11.8089 21.5537C11.8789 21.5717 11.9519 21.5877 12.0349 21.6007V9.43968ZM13.5349 21.6007V9.43968L21.0349 11.9397V12.3897C21.0349 17.5657 17.1649 20.1127 14.5859 21.2387C14.2149 21.4007 13.9999 21.4927 13.7609 21.5537C13.6909 21.5717 13.6179 21.5877 13.5349 21.6007Z" fill="black"/>
</svg>
