<svg width="21" height="21" viewBox="0 0 21 21" fill="none" xmlns="http://www.w3.org/2000/svg">
<path d="M16.8749 8.02674L12.8416 7.67674L11.2666 3.96841C10.9833 3.29341 10.0166 3.29341 9.73327 3.96841L8.15827 7.68508L4.13327 8.02674C3.39994 8.08507 3.09994 9.00174 3.65827 9.48507L6.7166 12.1351L5.79994 16.0684C5.63327 16.7851 6.40827 17.3517 7.0416 16.9684L10.4999 14.8851L13.9583 16.9767C14.5916 17.3601 15.3666 16.7934 15.1999 16.0767L14.2833 12.1351L17.3416 9.48507C17.8999 9.00174 17.6083 8.08507 16.8749 8.02674ZM10.4999 13.3267V5.57674L11.9249 8.94341L15.5749 9.26008L12.8083 11.6601L13.6416 15.2267L10.4999 13.3267Z" fill="#FFC022"/>
</svg>
