<svg width="30" height="31" viewBox="0 0 30 31" fill="none" xmlns="http://www.w3.org/2000/svg">
<path d="M9.75 13.1108V22.1108H6.75V13.1108H9.75ZM12.75 22.1108C12.3522 22.1108 11.9706 21.9528 11.6893 21.6715C11.408 21.3902 11.25 21.0087 11.25 20.6108V13.1108C11.25 12.6983 11.415 12.3233 11.6925 12.0533L16.6275 7.11084L17.4225 7.90584C17.625 8.10834 17.7525 8.38584 17.7525 8.69334L17.73 8.93334L17.0175 12.3608H21.75C22.1478 12.3608 22.5294 12.5189 22.8107 12.8002C23.092 13.0815 23.25 13.463 23.25 13.8608V15.3608C23.25 15.5558 23.2125 15.7358 23.145 15.9083L20.88 21.1958C20.655 21.7358 20.1225 22.1108 19.5 22.1108H12.75ZM12.75 20.6108H19.5225L21.75 15.3608V13.8608H15.1575L16.005 9.87084L12.75 13.1333V20.6108Z" fill="#4657A1"/>
<circle cx="15" cy="15.3608" r="14.5" stroke="#4657A1"/>
</svg>
