<svg width="23" height="21" viewBox="0 0 23 21" fill="none" xmlns="http://www.w3.org/2000/svg">
<path d="M22.1044 9.17273C22.1044 8.6423 21.8937 8.13359 21.5186 7.75852C21.1435 7.38344 20.6348 7.17273 20.1044 7.17273H13.7844L14.7444 2.60273C14.7644 2.50273 14.7744 2.39273 14.7744 2.28273C14.7744 1.87273 14.6044 1.49273 14.3344 1.22273L13.2744 0.172729L6.69437 6.75273C6.32437 7.12273 6.10437 7.62273 6.10437 8.17273V18.1727C6.10437 18.7032 6.31508 19.2119 6.69016 19.5869C7.06523 19.962 7.57394 20.1727 8.10437 20.1727H17.1044C17.9344 20.1727 18.6444 19.6727 18.9444 18.9527L21.9644 11.9027C22.0544 11.6727 22.1044 11.4327 22.1044 11.1727V9.17273ZM0.10437 20.1727H4.10437V8.17273H0.10437V20.1727Z" fill="#FF6227"/>
</svg>
