<svg width="25" height="25" viewBox="0 0 25 25" fill="none" xmlns="http://www.w3.org/2000/svg">
<path d="M12.1565 4.39331C13.2174 4.39331 14.2348 4.81474 14.9849 5.56488C15.7351 6.31503 16.1565 7.33244 16.1565 8.39331C16.1565 9.45418 15.7351 10.4716 14.9849 11.2217C14.2348 11.9719 13.2174 12.3933 12.1565 12.3933C11.0956 12.3933 10.0782 11.9719 9.32807 11.2217C8.57792 10.4716 8.15649 9.45418 8.15649 8.39331C8.15649 7.33244 8.57792 6.31503 9.32807 5.56488C10.0782 4.81474 11.0956 4.39331 12.1565 4.39331ZM12.1565 14.3933C16.5765 14.3933 20.1565 16.1833 20.1565 18.3933V20.3933H4.15649V18.3933C4.15649 16.1833 7.73649 14.3933 12.1565 14.3933Z" fill="#333333"/>
</svg>
