<svg width="25" height="25" viewBox="0 0 25 25" fill="none" xmlns="http://www.w3.org/2000/svg">
<g clip-path="url(#clip0_484_1282)">
<path d="M21.6536 0.82666C22.3609 0.82666 23.0392 1.10761 23.5393 1.60771C24.0394 2.10781 24.3203 2.78608 24.3203 3.49333V22.16C24.3203 22.8672 24.0394 23.5455 23.5393 24.0456C23.0392 24.5457 22.3609 24.8267 21.6536 24.8267H2.98698C2.27974 24.8267 1.60146 24.5457 1.10136 24.0456C0.601264 23.5455 0.320313 22.8672 0.320312 22.16V3.49333C0.320312 2.78608 0.601264 2.10781 1.10136 1.60771C1.60146 1.10761 2.27974 0.82666 2.98698 0.82666H21.6536ZM20.987 21.4933V14.4267C20.987 13.2739 20.529 12.1683 19.7139 11.3531C18.8987 10.5379 17.7931 10.08 16.6403 10.08C15.507 10.08 14.187 10.7733 13.547 11.8133V10.3333H9.82698V21.4933H13.547V14.92C13.547 13.8933 14.3736 13.0533 15.4003 13.0533C15.8954 13.0533 16.3702 13.25 16.7202 13.6001C17.0703 13.9501 17.267 14.4249 17.267 14.92V21.4933H20.987ZM5.49365 8.23999C6.08773 8.23999 6.65748 8.00399 7.07757 7.58391C7.49765 7.16383 7.73365 6.59408 7.73365 5.99999C7.73365 4.75999 6.73365 3.74666 5.49365 3.74666C4.89603 3.74666 4.32288 3.98406 3.9003 4.40665C3.47772 4.82923 3.24031 5.40237 3.24031 5.99999C3.24031 7.23999 4.25365 8.23999 5.49365 8.23999ZM7.34698 21.4933V10.3333H3.65365V21.4933H7.34698Z" fill="white"/>
</g>
<defs>
<clipPath id="clip0_484_1282">
<rect width="24" height="24" fill="white" transform="translate(0.320312 0.82666)"/>
</clipPath>
</defs>
</svg>
