<svg width="24" height="24" viewBox="0 0 24 24" fill="none" xmlns="http://www.w3.org/2000/svg">
<path d="M9.99756 14.9995L15.1876 11.9995L9.99756 8.99951V14.9995ZM21.5576 7.16951C21.6876 7.63951 21.7776 8.26951 21.8376 9.06951C21.9076 9.86951 21.9376 10.5595 21.9376 11.1595L21.9976 11.9995C21.9976 14.1895 21.8376 15.7995 21.5576 16.8295C21.3076 17.7295 20.7276 18.3095 19.8276 18.5595C19.3576 18.6895 18.4976 18.7795 17.1776 18.8395C15.8776 18.9095 14.6876 18.9395 13.5876 18.9395L11.9976 18.9995C7.80756 18.9995 5.19756 18.8395 4.16756 18.5595C3.26756 18.3095 2.68756 17.7295 2.43756 16.8295C2.30756 16.3595 2.21756 15.7295 2.15756 14.9295C2.08756 14.1295 2.05756 13.4395 2.05756 12.8395L1.99756 11.9995C1.99756 9.80951 2.15756 8.19951 2.43756 7.16951C2.68756 6.26951 3.26756 5.68951 4.16756 5.43951C4.63756 5.30951 5.49756 5.21951 6.81756 5.15951C8.11756 5.08951 9.30756 5.05951 10.4076 5.05951L11.9976 4.99951C16.1876 4.99951 18.7976 5.15951 19.8276 5.43951C20.7276 5.68951 21.3076 6.26951 21.5576 7.16951Z" fill="#4657A1"/>
</svg>
